M48
; DRILL file {KiCad (5.1.0-1558-g0ba0c1724)} date Sun 01 Dec 2019 02:41:26 PM PST
; FORMAT={-:-/ absolute / metric / decimal}
; #@! TF.CreationDate,2019-12-01T14:41:26-08:00
; #@! TF.GenerationSoftware,Kicad,Pcbnew,(5.1.0-1558-g0ba0c1724)
; #@! TF.FileFunction,Plated,1,2,PTH
FMAT,2
METRIC
T1C0.750
T2C1.000
T3C1.800
%
G90
G05
T1
X204.75Y-114.5
X204.75Y-116.5
X204.75Y-118.5
X204.75Y-120.5
X204.75Y-122.5
X204.75Y-124.5
T2
X196.25Y-112.75
X196.25Y-115.29
X196.25Y-117.83
X200.0Y-115.21
X200.0Y-117.75
X200.0Y-123.96
X200.0Y-126.5
X196.25Y-121.5
X196.25Y-124.04
X196.25Y-126.58
T3
X186.5Y-113.4
X186.5Y-117.6
X186.5Y-121.8
X186.5Y-126.0
X192.0Y-113.4
X192.0Y-117.6
X192.0Y-121.8
X192.0Y-126.0
T0
M30
