G04 #@! TF.GenerationSoftware,KiCad,Pcbnew,(5.1.0-1558-g0ba0c1724)*
G04 #@! TF.CreationDate,2019-12-01T14:41:24-08:00*
G04 #@! TF.ProjectId,8to4Stepper,38746f34-5374-4657-9070-65722e6b6963,rev?*
G04 #@! TF.SameCoordinates,Original*
G04 #@! TF.FileFunction,Soldermask,Bot*
G04 #@! TF.FilePolarity,Negative*
%FSLAX46Y46*%
G04 Gerber Fmt 4.6, Leading zero omitted, Abs format (unit mm)*
G04 Created by KiCad (PCBNEW (5.1.0-1558-g0ba0c1724)) date 2019-12-01 14:41:24*
%MOMM*%
%LPD*%
G04 APERTURE LIST*
%ADD10C,0.100000*%
G04 APERTURE END LIST*
D10*
G36*
X179214870Y-124447503D02*
G01*
X179270587Y-124445557D01*
X179337861Y-124454056D01*
X179400350Y-124457385D01*
X179456239Y-124469010D01*
X179518205Y-124476838D01*
X179576838Y-124494095D01*
X179631387Y-124505441D01*
X179691309Y-124527785D01*
X179757637Y-124547307D01*
X179806700Y-124570814D01*
X179852485Y-124587887D01*
X179914355Y-124622394D01*
X179982722Y-124655150D01*
X180021870Y-124682359D01*
X180058580Y-124702833D01*
X180119992Y-124750555D01*
X180187669Y-124797592D01*
X180217117Y-124826029D01*
X180244905Y-124847623D01*
X180303181Y-124909140D01*
X180367207Y-124970969D01*
X180387690Y-124998349D01*
X180407196Y-125018940D01*
X180459539Y-125094391D01*
X180516715Y-125170821D01*
X180529424Y-125195130D01*
X180541703Y-125212831D01*
X180585241Y-125301900D01*
X180632347Y-125392005D01*
X180638868Y-125411606D01*
X180645330Y-125424827D01*
X180677204Y-125526849D01*
X180711129Y-125628831D01*
X180713351Y-125642547D01*
X180715703Y-125650077D01*
X180733218Y-125765216D01*
X180751033Y-125875207D01*
X180748079Y-126157248D01*
X180741707Y-126191966D01*
X180741166Y-126210197D01*
X180721162Y-126303910D01*
X180703024Y-126402734D01*
X180695639Y-126423474D01*
X180692281Y-126439204D01*
X180654978Y-126537664D01*
X180619300Y-126637859D01*
X180611956Y-126651218D01*
X180608676Y-126659875D01*
X180552486Y-126759393D01*
X180499061Y-126856573D01*
X180493852Y-126863240D01*
X180492659Y-126865353D01*
X180407525Y-126973734D01*
X180345400Y-127053249D01*
X180264204Y-127128438D01*
X180174728Y-127212314D01*
X180170477Y-127215230D01*
X180162271Y-127222829D01*
X180071065Y-127283426D01*
X179980132Y-127345806D01*
X179969346Y-127351009D01*
X179954386Y-127360948D01*
X179859597Y-127403946D01*
X179767593Y-127448324D01*
X179749603Y-127453841D01*
X179727091Y-127464053D01*
X179632529Y-127489745D01*
X179541988Y-127517512D01*
X179516633Y-127521234D01*
X179486237Y-127529492D01*
X179395124Y-127539068D01*
X179308513Y-127551781D01*
X179276058Y-127551583D01*
X179238018Y-127555581D01*
X179153077Y-127550832D01*
X179072537Y-127550340D01*
X179033732Y-127544159D01*
X178988820Y-127541648D01*
X178912188Y-127524799D01*
X178839503Y-127513222D01*
X178795572Y-127499160D01*
X178745056Y-127488053D01*
X178678282Y-127461615D01*
X178614751Y-127441279D01*
X178567318Y-127417681D01*
X178512997Y-127396174D01*
X178457052Y-127362824D01*
X178403481Y-127336173D01*
X178354562Y-127301729D01*
X178298612Y-127268376D01*
X178253850Y-127230816D01*
X178210537Y-127200319D01*
X178162434Y-127154109D01*
X178107418Y-127107945D01*
X178073622Y-127068792D01*
X178040359Y-127036838D01*
X177995609Y-126978413D01*
X177944333Y-126919009D01*
X177920758Y-126880688D01*
X177896869Y-126849499D01*
X177858132Y-126778891D01*
X177813554Y-126706430D01*
X177798980Y-126671071D01*
X177783367Y-126642612D01*
X177753347Y-126560357D01*
X177718444Y-126475676D01*
X177711254Y-126445023D01*
X177702464Y-126420937D01*
X177683818Y-126328049D01*
X177661451Y-126232684D01*
X177659727Y-126208029D01*
X177656023Y-126189577D01*
X177651300Y-126087527D01*
X177644040Y-125983705D01*
X177645668Y-125965820D01*
X177645114Y-125953855D01*
X177656738Y-125844177D01*
X177666661Y-125735146D01*
X177669442Y-125724316D01*
X177669985Y-125719190D01*
X177701189Y-125600668D01*
X177728731Y-125493401D01*
X177769091Y-125401021D01*
X177823971Y-125274502D01*
X177825264Y-125272445D01*
X177828652Y-125264690D01*
X177888740Y-125171452D01*
X177949542Y-125074713D01*
X177955595Y-125067713D01*
X177963855Y-125054896D01*
X178035058Y-124975817D01*
X178103893Y-124896212D01*
X178116124Y-124885785D01*
X178130861Y-124869417D01*
X178209191Y-124806438D01*
X178283465Y-124743114D01*
X178302935Y-124731065D01*
X178325373Y-124713025D01*
X178407267Y-124666503D01*
X178484129Y-124618939D01*
X178511484Y-124607299D01*
X178542387Y-124589744D01*
X178624567Y-124559182D01*
X178701259Y-124526549D01*
X178736685Y-124517486D01*
X178776320Y-124502746D01*
X178855882Y-124486992D01*
X178929877Y-124468062D01*
X178973059Y-124463790D01*
X179021153Y-124454267D01*
X179095594Y-124451668D01*
X179164709Y-124444830D01*
X179214870Y-124447503D01*
X179214870Y-124447503D01*
G37*
G36*
X196438360Y-125693835D02*
G01*
X196519397Y-125720166D01*
X196606663Y-125747848D01*
X196609655Y-125749493D01*
X196618488Y-125752363D01*
X196690466Y-125793919D01*
X196761499Y-125832970D01*
X196768986Y-125839253D01*
X196782511Y-125847061D01*
X196840259Y-125899057D01*
X196896857Y-125946549D01*
X196906962Y-125959118D01*
X196923261Y-125973793D01*
X196965454Y-126031867D01*
X197007579Y-126084260D01*
X197017994Y-126104182D01*
X197034586Y-126127019D01*
X197061297Y-126187012D01*
X197089439Y-126240843D01*
X197097582Y-126268510D01*
X197111621Y-126300042D01*
X197123992Y-126358241D01*
X197139328Y-126410349D01*
X197142518Y-126445401D01*
X197150999Y-126485301D01*
X197150999Y-126538592D01*
X197155343Y-126586324D01*
X197150999Y-126627653D01*
X197150999Y-126674699D01*
X197141217Y-126720721D01*
X197136873Y-126762047D01*
X197122702Y-126807827D01*
X197111621Y-126859958D01*
X197095028Y-126897226D01*
X197084622Y-126930843D01*
X197058789Y-126978620D01*
X197034586Y-127032981D01*
X197014298Y-127060905D01*
X197000580Y-127086276D01*
X196961859Y-127133082D01*
X196923261Y-127186207D01*
X196902284Y-127205095D01*
X196887952Y-127222419D01*
X196835845Y-127264917D01*
X196782511Y-127312939D01*
X196763524Y-127323901D01*
X196751025Y-127334095D01*
X196685780Y-127368786D01*
X196618488Y-127407637D01*
X196603636Y-127412463D01*
X196595003Y-127417053D01*
X196517430Y-127440473D01*
X196438360Y-127466165D01*
X196429114Y-127467137D01*
X196425851Y-127468122D01*
X196334710Y-127477059D01*
X196297211Y-127481000D01*
X196202789Y-127481000D01*
X196061640Y-127466165D01*
X195980603Y-127439834D01*
X195893337Y-127412152D01*
X195890345Y-127410507D01*
X195881512Y-127407637D01*
X195809534Y-127366081D01*
X195738501Y-127327030D01*
X195731014Y-127320747D01*
X195717489Y-127312939D01*
X195659741Y-127260943D01*
X195603143Y-127213451D01*
X195593038Y-127200882D01*
X195576739Y-127186207D01*
X195534546Y-127128133D01*
X195492421Y-127075740D01*
X195482006Y-127055818D01*
X195465414Y-127032981D01*
X195438703Y-126972988D01*
X195410561Y-126919157D01*
X195402418Y-126891490D01*
X195388379Y-126859958D01*
X195376008Y-126801759D01*
X195360672Y-126749651D01*
X195357482Y-126714599D01*
X195349001Y-126674699D01*
X195349001Y-126621408D01*
X195344657Y-126573676D01*
X195349001Y-126532347D01*
X195349001Y-126485301D01*
X195358783Y-126439279D01*
X195363127Y-126397953D01*
X195377298Y-126352173D01*
X195388379Y-126300042D01*
X195404972Y-126262774D01*
X195415378Y-126229157D01*
X195441211Y-126181380D01*
X195465414Y-126127019D01*
X195485702Y-126099095D01*
X195499420Y-126073724D01*
X195538141Y-126026918D01*
X195576739Y-125973793D01*
X195597716Y-125954905D01*
X195612048Y-125937581D01*
X195664155Y-125895083D01*
X195717489Y-125847061D01*
X195736476Y-125836099D01*
X195748975Y-125825905D01*
X195814220Y-125791214D01*
X195881512Y-125752363D01*
X195896364Y-125747537D01*
X195904997Y-125742947D01*
X195982570Y-125719527D01*
X196061640Y-125693835D01*
X196070886Y-125692863D01*
X196074149Y-125691878D01*
X196165290Y-125682941D01*
X196202789Y-125679000D01*
X196297211Y-125679000D01*
X196438360Y-125693835D01*
X196438360Y-125693835D01*
G37*
G36*
X200869899Y-125601959D02*
G01*
X200886769Y-125613231D01*
X200898041Y-125630101D01*
X200904448Y-125662312D01*
X200904448Y-127337688D01*
X200901999Y-127350000D01*
X200898041Y-127369899D01*
X200886769Y-127386769D01*
X200869899Y-127398041D01*
X200850000Y-127401999D01*
X200837688Y-127404448D01*
X199162312Y-127404448D01*
X199130101Y-127398041D01*
X199113231Y-127386769D01*
X199101959Y-127369899D01*
X199095552Y-127337688D01*
X199095552Y-125662312D01*
X199101959Y-125630101D01*
X199113231Y-125613231D01*
X199130101Y-125601959D01*
X199162312Y-125595552D01*
X200837688Y-125595552D01*
X200869899Y-125601959D01*
X200869899Y-125601959D01*
G37*
G36*
X188186755Y-124611764D02*
G01*
X188198227Y-124617288D01*
X188206286Y-124618795D01*
X188223545Y-124629481D01*
X188268638Y-124651197D01*
X188288736Y-124669846D01*
X188301964Y-124678036D01*
X188312267Y-124691679D01*
X188335264Y-124713018D01*
X188357615Y-124751730D01*
X188369780Y-124767840D01*
X188371749Y-124776212D01*
X188379506Y-124789647D01*
X188398419Y-124889606D01*
X188401883Y-124904332D01*
X188401883Y-124907911D01*
X188403194Y-124914840D01*
X188403194Y-127087515D01*
X188388236Y-127186755D01*
X188382712Y-127198227D01*
X188381205Y-127206286D01*
X188370519Y-127223545D01*
X188348803Y-127268638D01*
X188330154Y-127288736D01*
X188321964Y-127301964D01*
X188308321Y-127312267D01*
X188286982Y-127335264D01*
X188248270Y-127357615D01*
X188232160Y-127369780D01*
X188223788Y-127371749D01*
X188210353Y-127379506D01*
X188110394Y-127398419D01*
X188095668Y-127401883D01*
X188092089Y-127401883D01*
X188085160Y-127403194D01*
X184912485Y-127403194D01*
X184813245Y-127388236D01*
X184801773Y-127382712D01*
X184793714Y-127381205D01*
X184776455Y-127370519D01*
X184731362Y-127348803D01*
X184711264Y-127330154D01*
X184698036Y-127321964D01*
X184687733Y-127308321D01*
X184664736Y-127286982D01*
X184642385Y-127248270D01*
X184630220Y-127232160D01*
X184628251Y-127223788D01*
X184620494Y-127210353D01*
X184601581Y-127110394D01*
X184598117Y-127095668D01*
X184598117Y-127092089D01*
X184596806Y-127085160D01*
X184596806Y-124912485D01*
X184611764Y-124813245D01*
X184617288Y-124801773D01*
X184618795Y-124793714D01*
X184629481Y-124776455D01*
X184651197Y-124731362D01*
X184669846Y-124711264D01*
X184678036Y-124698036D01*
X184691679Y-124687733D01*
X184713018Y-124664736D01*
X184751730Y-124642385D01*
X184767840Y-124630220D01*
X184776212Y-124628251D01*
X184789647Y-124620494D01*
X184889606Y-124601581D01*
X184904332Y-124598117D01*
X184907911Y-124598117D01*
X184914840Y-124596806D01*
X188087515Y-124596806D01*
X188186755Y-124611764D01*
X188186755Y-124611764D01*
G37*
G36*
X192676165Y-124617284D02*
G01*
X192852251Y-124639529D01*
X192857415Y-124641307D01*
X192866286Y-124642483D01*
X192967020Y-124679048D01*
X193062717Y-124711999D01*
X193073021Y-124717524D01*
X193089777Y-124723606D01*
X193177620Y-124773609D01*
X193261403Y-124818533D01*
X193275576Y-124829369D01*
X193296404Y-124841225D01*
X193369845Y-124901443D01*
X193440503Y-124955465D01*
X193456982Y-124972891D01*
X193480259Y-124991977D01*
X193538498Y-125059091D01*
X193595406Y-125119270D01*
X193612339Y-125144186D01*
X193636086Y-125171552D01*
X193679014Y-125242296D01*
X193722126Y-125305732D01*
X193737448Y-125338591D01*
X193759429Y-125374814D01*
X193787589Y-125446119D01*
X193817407Y-125510065D01*
X193828945Y-125550840D01*
X193846761Y-125595952D01*
X193861245Y-125664981D01*
X193878791Y-125726988D01*
X193884368Y-125775187D01*
X193895584Y-125828644D01*
X193898001Y-125893015D01*
X193904704Y-125950951D01*
X193902225Y-126005538D01*
X193904504Y-126066235D01*
X193896845Y-126124024D01*
X193894477Y-126176164D01*
X193882050Y-126235647D01*
X193873265Y-126301932D01*
X193857794Y-126351757D01*
X193848375Y-126396842D01*
X193824404Y-126459288D01*
X193802759Y-126528996D01*
X193781888Y-126570047D01*
X193767579Y-126607322D01*
X193730856Y-126670418D01*
X193695004Y-126740934D01*
X193671173Y-126772964D01*
X193654173Y-126802173D01*
X193603947Y-126863319D01*
X193553080Y-126931687D01*
X193528632Y-126955009D01*
X193511073Y-126976386D01*
X193447120Y-127032769D01*
X193381046Y-127095800D01*
X193358110Y-127111242D01*
X193341964Y-127125476D01*
X193264632Y-127174174D01*
X193183819Y-127228581D01*
X193164207Y-127237416D01*
X193151191Y-127245612D01*
X193061403Y-127283725D01*
X192967040Y-127326232D01*
X192952172Y-127330091D01*
X192943665Y-127333702D01*
X192842921Y-127358447D01*
X192736907Y-127385963D01*
X192727724Y-127386742D01*
X192724720Y-127387480D01*
X192614835Y-127396321D01*
X192559692Y-127401000D01*
X191461785Y-127401000D01*
X191323835Y-127382716D01*
X191147749Y-127360471D01*
X191142585Y-127358693D01*
X191133714Y-127357517D01*
X191032980Y-127320952D01*
X190937283Y-127288001D01*
X190926979Y-127282476D01*
X190910223Y-127276394D01*
X190822380Y-127226391D01*
X190738597Y-127181467D01*
X190724424Y-127170631D01*
X190703596Y-127158775D01*
X190630155Y-127098557D01*
X190559497Y-127044535D01*
X190543018Y-127027109D01*
X190519741Y-127008023D01*
X190461502Y-126940909D01*
X190404594Y-126880730D01*
X190387661Y-126855814D01*
X190363914Y-126828448D01*
X190320986Y-126757704D01*
X190277874Y-126694268D01*
X190262552Y-126661409D01*
X190240571Y-126625186D01*
X190212411Y-126553881D01*
X190182593Y-126489935D01*
X190171055Y-126449160D01*
X190153239Y-126404048D01*
X190138755Y-126335019D01*
X190121209Y-126273012D01*
X190115632Y-126224813D01*
X190104416Y-126171356D01*
X190101999Y-126106985D01*
X190095296Y-126049049D01*
X190097775Y-125994462D01*
X190095496Y-125933765D01*
X190103155Y-125875976D01*
X190105523Y-125823836D01*
X190117950Y-125764353D01*
X190126735Y-125698068D01*
X190142206Y-125648243D01*
X190151625Y-125603158D01*
X190175596Y-125540712D01*
X190197241Y-125471004D01*
X190218112Y-125429953D01*
X190232421Y-125392678D01*
X190269144Y-125329582D01*
X190304996Y-125259066D01*
X190328827Y-125227036D01*
X190345827Y-125197827D01*
X190396053Y-125136681D01*
X190446920Y-125068313D01*
X190471368Y-125044991D01*
X190488927Y-125023614D01*
X190552880Y-124967231D01*
X190618954Y-124904200D01*
X190641890Y-124888758D01*
X190658036Y-124874524D01*
X190735368Y-124825826D01*
X190816181Y-124771419D01*
X190835793Y-124762584D01*
X190848809Y-124754388D01*
X190938597Y-124716275D01*
X191032960Y-124673768D01*
X191047828Y-124669909D01*
X191056335Y-124666298D01*
X191157079Y-124641553D01*
X191263093Y-124614037D01*
X191272276Y-124613258D01*
X191275280Y-124612520D01*
X191385165Y-124603679D01*
X191440308Y-124599000D01*
X192538215Y-124599000D01*
X192676165Y-124617284D01*
X192676165Y-124617284D01*
G37*
G36*
X205461756Y-123861764D02*
G01*
X205473227Y-123867288D01*
X205481287Y-123868795D01*
X205498547Y-123879482D01*
X205543638Y-123901197D01*
X205563738Y-123919847D01*
X205576964Y-123928036D01*
X205587265Y-123941676D01*
X205610264Y-123963016D01*
X205632614Y-124001727D01*
X205644781Y-124017839D01*
X205646751Y-124026213D01*
X205654506Y-124039646D01*
X205673419Y-124139601D01*
X205676883Y-124154330D01*
X205676883Y-124157909D01*
X205678194Y-124164838D01*
X205678194Y-124837517D01*
X205663236Y-124936756D01*
X205657712Y-124948227D01*
X205656205Y-124956287D01*
X205645518Y-124973547D01*
X205623803Y-125018638D01*
X205605153Y-125038738D01*
X205596964Y-125051964D01*
X205583324Y-125062265D01*
X205561984Y-125085264D01*
X205523273Y-125107614D01*
X205507161Y-125119781D01*
X205498787Y-125121751D01*
X205485354Y-125129506D01*
X205385399Y-125148419D01*
X205370670Y-125151883D01*
X205367091Y-125151883D01*
X205360162Y-125153194D01*
X204137483Y-125153194D01*
X204038244Y-125138236D01*
X204026773Y-125132712D01*
X204018713Y-125131205D01*
X204001453Y-125120518D01*
X203956362Y-125098803D01*
X203936262Y-125080153D01*
X203923036Y-125071964D01*
X203912735Y-125058324D01*
X203889736Y-125036984D01*
X203867386Y-124998273D01*
X203855219Y-124982161D01*
X203853249Y-124973787D01*
X203845494Y-124960354D01*
X203826581Y-124860399D01*
X203823117Y-124845670D01*
X203823117Y-124842091D01*
X203821806Y-124835162D01*
X203821806Y-124162483D01*
X203836764Y-124063244D01*
X203842288Y-124051773D01*
X203843795Y-124043713D01*
X203854482Y-124026453D01*
X203876197Y-123981362D01*
X203894847Y-123961262D01*
X203903036Y-123948036D01*
X203916676Y-123937735D01*
X203938016Y-123914736D01*
X203976727Y-123892386D01*
X203992839Y-123880219D01*
X204001213Y-123878249D01*
X204014646Y-123870494D01*
X204114601Y-123851581D01*
X204129330Y-123848117D01*
X204132909Y-123848117D01*
X204139838Y-123846806D01*
X205362517Y-123846806D01*
X205461756Y-123861764D01*
X205461756Y-123861764D01*
G37*
G36*
X196438360Y-123153835D02*
G01*
X196519397Y-123180166D01*
X196606663Y-123207848D01*
X196609655Y-123209493D01*
X196618488Y-123212363D01*
X196690466Y-123253919D01*
X196761499Y-123292970D01*
X196768986Y-123299253D01*
X196782511Y-123307061D01*
X196840259Y-123359057D01*
X196896857Y-123406549D01*
X196906962Y-123419118D01*
X196923261Y-123433793D01*
X196965454Y-123491867D01*
X197007579Y-123544260D01*
X197017994Y-123564182D01*
X197034586Y-123587019D01*
X197061297Y-123647012D01*
X197089439Y-123700843D01*
X197097582Y-123728510D01*
X197111621Y-123760042D01*
X197123992Y-123818241D01*
X197139328Y-123870349D01*
X197142518Y-123905401D01*
X197150999Y-123945301D01*
X197150999Y-123998592D01*
X197155343Y-124046324D01*
X197150999Y-124087653D01*
X197150999Y-124134699D01*
X197141217Y-124180721D01*
X197136873Y-124222047D01*
X197122702Y-124267827D01*
X197111621Y-124319958D01*
X197095028Y-124357226D01*
X197084622Y-124390843D01*
X197058789Y-124438620D01*
X197034586Y-124492981D01*
X197014298Y-124520905D01*
X197000580Y-124546276D01*
X196961859Y-124593082D01*
X196923261Y-124646207D01*
X196902284Y-124665095D01*
X196887952Y-124682419D01*
X196835845Y-124724917D01*
X196782511Y-124772939D01*
X196763524Y-124783901D01*
X196751025Y-124794095D01*
X196685780Y-124828786D01*
X196618488Y-124867637D01*
X196603636Y-124872463D01*
X196595003Y-124877053D01*
X196517430Y-124900473D01*
X196438360Y-124926165D01*
X196429114Y-124927137D01*
X196425851Y-124928122D01*
X196334710Y-124937059D01*
X196297211Y-124941000D01*
X196202789Y-124941000D01*
X196061640Y-124926165D01*
X195980603Y-124899834D01*
X195893337Y-124872152D01*
X195890345Y-124870507D01*
X195881512Y-124867637D01*
X195809534Y-124826081D01*
X195738501Y-124787030D01*
X195731014Y-124780747D01*
X195717489Y-124772939D01*
X195659741Y-124720943D01*
X195603143Y-124673451D01*
X195593038Y-124660882D01*
X195576739Y-124646207D01*
X195534546Y-124588133D01*
X195492421Y-124535740D01*
X195482006Y-124515818D01*
X195465414Y-124492981D01*
X195438703Y-124432988D01*
X195410561Y-124379157D01*
X195402418Y-124351490D01*
X195388379Y-124319958D01*
X195376008Y-124261759D01*
X195360672Y-124209651D01*
X195357482Y-124174599D01*
X195349001Y-124134699D01*
X195349001Y-124081408D01*
X195344657Y-124033676D01*
X195349001Y-123992347D01*
X195349001Y-123945301D01*
X195358783Y-123899279D01*
X195363127Y-123857953D01*
X195377298Y-123812173D01*
X195388379Y-123760042D01*
X195404972Y-123722774D01*
X195415378Y-123689157D01*
X195441211Y-123641380D01*
X195465414Y-123587019D01*
X195485702Y-123559095D01*
X195499420Y-123533724D01*
X195538141Y-123486918D01*
X195576739Y-123433793D01*
X195597716Y-123414905D01*
X195612048Y-123397581D01*
X195664155Y-123355083D01*
X195717489Y-123307061D01*
X195736476Y-123296099D01*
X195748975Y-123285905D01*
X195814220Y-123251214D01*
X195881512Y-123212363D01*
X195896364Y-123207537D01*
X195904997Y-123202947D01*
X195982570Y-123179527D01*
X196061640Y-123153835D01*
X196070886Y-123152863D01*
X196074149Y-123151878D01*
X196165290Y-123142941D01*
X196202789Y-123139000D01*
X196297211Y-123139000D01*
X196438360Y-123153835D01*
X196438360Y-123153835D01*
G37*
G36*
X200188360Y-123073835D02*
G01*
X200269397Y-123100166D01*
X200356663Y-123127848D01*
X200359655Y-123129493D01*
X200368488Y-123132363D01*
X200440466Y-123173919D01*
X200511499Y-123212970D01*
X200518986Y-123219253D01*
X200532511Y-123227061D01*
X200590259Y-123279057D01*
X200646857Y-123326549D01*
X200656962Y-123339118D01*
X200673261Y-123353793D01*
X200715454Y-123411867D01*
X200757579Y-123464260D01*
X200767994Y-123484182D01*
X200784586Y-123507019D01*
X200811297Y-123567012D01*
X200839439Y-123620843D01*
X200847582Y-123648510D01*
X200861621Y-123680042D01*
X200873992Y-123738241D01*
X200889328Y-123790349D01*
X200892518Y-123825401D01*
X200900999Y-123865301D01*
X200900999Y-123918592D01*
X200905343Y-123966324D01*
X200900999Y-124007653D01*
X200900999Y-124054699D01*
X200891217Y-124100721D01*
X200886873Y-124142047D01*
X200872702Y-124187827D01*
X200861621Y-124239958D01*
X200845028Y-124277226D01*
X200834622Y-124310843D01*
X200808789Y-124358620D01*
X200784586Y-124412981D01*
X200764298Y-124440905D01*
X200750580Y-124466276D01*
X200711859Y-124513082D01*
X200673261Y-124566207D01*
X200652284Y-124585095D01*
X200637952Y-124602419D01*
X200585845Y-124644917D01*
X200532511Y-124692939D01*
X200513524Y-124703901D01*
X200501025Y-124714095D01*
X200435780Y-124748786D01*
X200368488Y-124787637D01*
X200353636Y-124792463D01*
X200345003Y-124797053D01*
X200267430Y-124820473D01*
X200188360Y-124846165D01*
X200179114Y-124847137D01*
X200175851Y-124848122D01*
X200084710Y-124857059D01*
X200047211Y-124861000D01*
X199952789Y-124861000D01*
X199811640Y-124846165D01*
X199730603Y-124819834D01*
X199643337Y-124792152D01*
X199640345Y-124790507D01*
X199631512Y-124787637D01*
X199559534Y-124746081D01*
X199488501Y-124707030D01*
X199481014Y-124700747D01*
X199467489Y-124692939D01*
X199409741Y-124640943D01*
X199353143Y-124593451D01*
X199343038Y-124580882D01*
X199326739Y-124566207D01*
X199284546Y-124508133D01*
X199242421Y-124455740D01*
X199232006Y-124435818D01*
X199215414Y-124412981D01*
X199188703Y-124352988D01*
X199160561Y-124299157D01*
X199152418Y-124271490D01*
X199138379Y-124239958D01*
X199126008Y-124181759D01*
X199110672Y-124129651D01*
X199107482Y-124094599D01*
X199099001Y-124054699D01*
X199099001Y-124001408D01*
X199094657Y-123953676D01*
X199099001Y-123912347D01*
X199099001Y-123865301D01*
X199108783Y-123819279D01*
X199113127Y-123777953D01*
X199127298Y-123732173D01*
X199138379Y-123680042D01*
X199154972Y-123642774D01*
X199165378Y-123609157D01*
X199191211Y-123561380D01*
X199215414Y-123507019D01*
X199235702Y-123479095D01*
X199249420Y-123453724D01*
X199288141Y-123406918D01*
X199326739Y-123353793D01*
X199347716Y-123334905D01*
X199362048Y-123317581D01*
X199414155Y-123275083D01*
X199467489Y-123227061D01*
X199486476Y-123216099D01*
X199498975Y-123205905D01*
X199564220Y-123171214D01*
X199631512Y-123132363D01*
X199646364Y-123127537D01*
X199654997Y-123122947D01*
X199732570Y-123099527D01*
X199811640Y-123073835D01*
X199820886Y-123072863D01*
X199824149Y-123071878D01*
X199915290Y-123062941D01*
X199952789Y-123059000D01*
X200047211Y-123059000D01*
X200188360Y-123073835D01*
X200188360Y-123073835D01*
G37*
G36*
X187176165Y-120417284D02*
G01*
X187352251Y-120439529D01*
X187357415Y-120441307D01*
X187366286Y-120442483D01*
X187467020Y-120479048D01*
X187562717Y-120511999D01*
X187573021Y-120517524D01*
X187589777Y-120523606D01*
X187677620Y-120573609D01*
X187761403Y-120618533D01*
X187775576Y-120629369D01*
X187796404Y-120641225D01*
X187869845Y-120701443D01*
X187940503Y-120755465D01*
X187956982Y-120772891D01*
X187980259Y-120791977D01*
X188038498Y-120859091D01*
X188095406Y-120919270D01*
X188112339Y-120944186D01*
X188136086Y-120971552D01*
X188179014Y-121042296D01*
X188222126Y-121105732D01*
X188237448Y-121138591D01*
X188259429Y-121174814D01*
X188287589Y-121246119D01*
X188317407Y-121310065D01*
X188328945Y-121350840D01*
X188346761Y-121395952D01*
X188361245Y-121464981D01*
X188378791Y-121526988D01*
X188384368Y-121575187D01*
X188395584Y-121628644D01*
X188398001Y-121693015D01*
X188404704Y-121750951D01*
X188402225Y-121805538D01*
X188404504Y-121866235D01*
X188396845Y-121924024D01*
X188394477Y-121976164D01*
X188382050Y-122035647D01*
X188373265Y-122101932D01*
X188357794Y-122151757D01*
X188348375Y-122196842D01*
X188324404Y-122259288D01*
X188302759Y-122328996D01*
X188281888Y-122370047D01*
X188267579Y-122407322D01*
X188230856Y-122470418D01*
X188195004Y-122540934D01*
X188171173Y-122572964D01*
X188154173Y-122602173D01*
X188103947Y-122663319D01*
X188053080Y-122731687D01*
X188028632Y-122755009D01*
X188011073Y-122776386D01*
X187947120Y-122832769D01*
X187881046Y-122895800D01*
X187858110Y-122911242D01*
X187841964Y-122925476D01*
X187764632Y-122974174D01*
X187683819Y-123028581D01*
X187664207Y-123037416D01*
X187651191Y-123045612D01*
X187561403Y-123083725D01*
X187467040Y-123126232D01*
X187452172Y-123130091D01*
X187443665Y-123133702D01*
X187342921Y-123158447D01*
X187236907Y-123185963D01*
X187227724Y-123186742D01*
X187224720Y-123187480D01*
X187114835Y-123196321D01*
X187059692Y-123201000D01*
X185961785Y-123201000D01*
X185823835Y-123182716D01*
X185647749Y-123160471D01*
X185642585Y-123158693D01*
X185633714Y-123157517D01*
X185532980Y-123120952D01*
X185437283Y-123088001D01*
X185426979Y-123082476D01*
X185410223Y-123076394D01*
X185322380Y-123026391D01*
X185238597Y-122981467D01*
X185224424Y-122970631D01*
X185203596Y-122958775D01*
X185130155Y-122898557D01*
X185059497Y-122844535D01*
X185043018Y-122827109D01*
X185019741Y-122808023D01*
X184961502Y-122740909D01*
X184904594Y-122680730D01*
X184887661Y-122655814D01*
X184863914Y-122628448D01*
X184820986Y-122557704D01*
X184777874Y-122494268D01*
X184762552Y-122461409D01*
X184740571Y-122425186D01*
X184712411Y-122353881D01*
X184682593Y-122289935D01*
X184671055Y-122249160D01*
X184653239Y-122204048D01*
X184638755Y-122135019D01*
X184621209Y-122073012D01*
X184615632Y-122024813D01*
X184604416Y-121971356D01*
X184601999Y-121906985D01*
X184595296Y-121849049D01*
X184597775Y-121794462D01*
X184595496Y-121733765D01*
X184603155Y-121675976D01*
X184605523Y-121623836D01*
X184617950Y-121564353D01*
X184626735Y-121498068D01*
X184642206Y-121448243D01*
X184651625Y-121403158D01*
X184675596Y-121340712D01*
X184697241Y-121271004D01*
X184718112Y-121229953D01*
X184732421Y-121192678D01*
X184769144Y-121129582D01*
X184804996Y-121059066D01*
X184828827Y-121027036D01*
X184845827Y-120997827D01*
X184896053Y-120936681D01*
X184946920Y-120868313D01*
X184971368Y-120844991D01*
X184988927Y-120823614D01*
X185052880Y-120767231D01*
X185118954Y-120704200D01*
X185141890Y-120688758D01*
X185158036Y-120674524D01*
X185235368Y-120625826D01*
X185316181Y-120571419D01*
X185335793Y-120562584D01*
X185348809Y-120554388D01*
X185438597Y-120516275D01*
X185532960Y-120473768D01*
X185547828Y-120469909D01*
X185556335Y-120466298D01*
X185657079Y-120441553D01*
X185763093Y-120414037D01*
X185772276Y-120413258D01*
X185775280Y-120412520D01*
X185885165Y-120403679D01*
X185940308Y-120399000D01*
X187038215Y-120399000D01*
X187176165Y-120417284D01*
X187176165Y-120417284D01*
G37*
G36*
X192676165Y-120417284D02*
G01*
X192852251Y-120439529D01*
X192857415Y-120441307D01*
X192866286Y-120442483D01*
X192967020Y-120479048D01*
X193062717Y-120511999D01*
X193073021Y-120517524D01*
X193089777Y-120523606D01*
X193177620Y-120573609D01*
X193261403Y-120618533D01*
X193275576Y-120629369D01*
X193296404Y-120641225D01*
X193369845Y-120701443D01*
X193440503Y-120755465D01*
X193456982Y-120772891D01*
X193480259Y-120791977D01*
X193538498Y-120859091D01*
X193595406Y-120919270D01*
X193612339Y-120944186D01*
X193636086Y-120971552D01*
X193679014Y-121042296D01*
X193722126Y-121105732D01*
X193737448Y-121138591D01*
X193759429Y-121174814D01*
X193787589Y-121246119D01*
X193817407Y-121310065D01*
X193828945Y-121350840D01*
X193846761Y-121395952D01*
X193861245Y-121464981D01*
X193878791Y-121526988D01*
X193884368Y-121575187D01*
X193895584Y-121628644D01*
X193898001Y-121693015D01*
X193904704Y-121750951D01*
X193902225Y-121805538D01*
X193904504Y-121866235D01*
X193896845Y-121924024D01*
X193894477Y-121976164D01*
X193882050Y-122035647D01*
X193873265Y-122101932D01*
X193857794Y-122151757D01*
X193848375Y-122196842D01*
X193824404Y-122259288D01*
X193802759Y-122328996D01*
X193781888Y-122370047D01*
X193767579Y-122407322D01*
X193730856Y-122470418D01*
X193695004Y-122540934D01*
X193671173Y-122572964D01*
X193654173Y-122602173D01*
X193603947Y-122663319D01*
X193553080Y-122731687D01*
X193528632Y-122755009D01*
X193511073Y-122776386D01*
X193447120Y-122832769D01*
X193381046Y-122895800D01*
X193358110Y-122911242D01*
X193341964Y-122925476D01*
X193264632Y-122974174D01*
X193183819Y-123028581D01*
X193164207Y-123037416D01*
X193151191Y-123045612D01*
X193061403Y-123083725D01*
X192967040Y-123126232D01*
X192952172Y-123130091D01*
X192943665Y-123133702D01*
X192842921Y-123158447D01*
X192736907Y-123185963D01*
X192727724Y-123186742D01*
X192724720Y-123187480D01*
X192614835Y-123196321D01*
X192559692Y-123201000D01*
X191461785Y-123201000D01*
X191323835Y-123182716D01*
X191147749Y-123160471D01*
X191142585Y-123158693D01*
X191133714Y-123157517D01*
X191032980Y-123120952D01*
X190937283Y-123088001D01*
X190926979Y-123082476D01*
X190910223Y-123076394D01*
X190822380Y-123026391D01*
X190738597Y-122981467D01*
X190724424Y-122970631D01*
X190703596Y-122958775D01*
X190630155Y-122898557D01*
X190559497Y-122844535D01*
X190543018Y-122827109D01*
X190519741Y-122808023D01*
X190461502Y-122740909D01*
X190404594Y-122680730D01*
X190387661Y-122655814D01*
X190363914Y-122628448D01*
X190320986Y-122557704D01*
X190277874Y-122494268D01*
X190262552Y-122461409D01*
X190240571Y-122425186D01*
X190212411Y-122353881D01*
X190182593Y-122289935D01*
X190171055Y-122249160D01*
X190153239Y-122204048D01*
X190138755Y-122135019D01*
X190121209Y-122073012D01*
X190115632Y-122024813D01*
X190104416Y-121971356D01*
X190101999Y-121906985D01*
X190095296Y-121849049D01*
X190097775Y-121794462D01*
X190095496Y-121733765D01*
X190103155Y-121675976D01*
X190105523Y-121623836D01*
X190117950Y-121564353D01*
X190126735Y-121498068D01*
X190142206Y-121448243D01*
X190151625Y-121403158D01*
X190175596Y-121340712D01*
X190197241Y-121271004D01*
X190218112Y-121229953D01*
X190232421Y-121192678D01*
X190269144Y-121129582D01*
X190304996Y-121059066D01*
X190328827Y-121027036D01*
X190345827Y-120997827D01*
X190396053Y-120936681D01*
X190446920Y-120868313D01*
X190471368Y-120844991D01*
X190488927Y-120823614D01*
X190552880Y-120767231D01*
X190618954Y-120704200D01*
X190641890Y-120688758D01*
X190658036Y-120674524D01*
X190735368Y-120625826D01*
X190816181Y-120571419D01*
X190835793Y-120562584D01*
X190848809Y-120554388D01*
X190938597Y-120516275D01*
X191032960Y-120473768D01*
X191047828Y-120469909D01*
X191056335Y-120466298D01*
X191157079Y-120441553D01*
X191263093Y-120414037D01*
X191272276Y-120413258D01*
X191275280Y-120412520D01*
X191385165Y-120403679D01*
X191440308Y-120399000D01*
X192538215Y-120399000D01*
X192676165Y-120417284D01*
X192676165Y-120417284D01*
G37*
G36*
X205179463Y-121863394D02*
G01*
X205236602Y-121884191D01*
X205266554Y-121889905D01*
X205294481Y-121905258D01*
X205316293Y-121913197D01*
X205359086Y-121940775D01*
X205410689Y-121969144D01*
X205427276Y-121984720D01*
X205439058Y-121992313D01*
X205481333Y-122035483D01*
X205530591Y-122081739D01*
X205537884Y-122093231D01*
X205541247Y-122096665D01*
X205578768Y-122157654D01*
X205618724Y-122220615D01*
X205641754Y-122291494D01*
X205664844Y-122359321D01*
X205665347Y-122364106D01*
X205669551Y-122377045D01*
X205673793Y-122444466D01*
X205680110Y-122504572D01*
X205678450Y-122518492D01*
X205679879Y-122541202D01*
X205668845Y-122599045D01*
X205662817Y-122649599D01*
X205655030Y-122671467D01*
X205649059Y-122702769D01*
X205627787Y-122747975D01*
X205613823Y-122787189D01*
X205596457Y-122814553D01*
X205579026Y-122851596D01*
X205552930Y-122883140D01*
X205535564Y-122910505D01*
X205506026Y-122939838D01*
X205474182Y-122978330D01*
X205448403Y-122997060D01*
X205431931Y-123013417D01*
X205388757Y-123040395D01*
X205341114Y-123075010D01*
X205319955Y-123083387D01*
X205308070Y-123090814D01*
X205251010Y-123110685D01*
X205188184Y-123135559D01*
X205174683Y-123137265D01*
X205170142Y-123138846D01*
X205098983Y-123146828D01*
X205065956Y-123151000D01*
X204441252Y-123151000D01*
X204320537Y-123136606D01*
X204263398Y-123115809D01*
X204233446Y-123110095D01*
X204205519Y-123094742D01*
X204183707Y-123086803D01*
X204140914Y-123059225D01*
X204089311Y-123030856D01*
X204072724Y-123015280D01*
X204060942Y-123007687D01*
X204018667Y-122964517D01*
X203969409Y-122918261D01*
X203962116Y-122906769D01*
X203958753Y-122903335D01*
X203921232Y-122842346D01*
X203881276Y-122779385D01*
X203858246Y-122708506D01*
X203835156Y-122640679D01*
X203834653Y-122635894D01*
X203830449Y-122622955D01*
X203826207Y-122555534D01*
X203819890Y-122495428D01*
X203821550Y-122481508D01*
X203820121Y-122458798D01*
X203831155Y-122400955D01*
X203837183Y-122350401D01*
X203844970Y-122328533D01*
X203850941Y-122297231D01*
X203872213Y-122252025D01*
X203886177Y-122212811D01*
X203903543Y-122185447D01*
X203920974Y-122148404D01*
X203947070Y-122116860D01*
X203964436Y-122089495D01*
X203993974Y-122060162D01*
X204025818Y-122021670D01*
X204051597Y-122002940D01*
X204068069Y-121986583D01*
X204111243Y-121959605D01*
X204158886Y-121924990D01*
X204180045Y-121916613D01*
X204191930Y-121909186D01*
X204248990Y-121889315D01*
X204311816Y-121864441D01*
X204325317Y-121862735D01*
X204329858Y-121861154D01*
X204401017Y-121853172D01*
X204434044Y-121849000D01*
X205058748Y-121849000D01*
X205179463Y-121863394D01*
X205179463Y-121863394D01*
G37*
G36*
X197119899Y-120601959D02*
G01*
X197136769Y-120613231D01*
X197148041Y-120630101D01*
X197154448Y-120662312D01*
X197154448Y-122337688D01*
X197151999Y-122350000D01*
X197148041Y-122369899D01*
X197136769Y-122386769D01*
X197119899Y-122398041D01*
X197100000Y-122401999D01*
X197087688Y-122404448D01*
X195412312Y-122404448D01*
X195380101Y-122398041D01*
X195363231Y-122386769D01*
X195351959Y-122369899D01*
X195345552Y-122337688D01*
X195345552Y-120662312D01*
X195351959Y-120630101D01*
X195363231Y-120613231D01*
X195380101Y-120601959D01*
X195412312Y-120595552D01*
X197087688Y-120595552D01*
X197119899Y-120601959D01*
X197119899Y-120601959D01*
G37*
G36*
X205179463Y-119863394D02*
G01*
X205236602Y-119884191D01*
X205266554Y-119889905D01*
X205294481Y-119905258D01*
X205316293Y-119913197D01*
X205359086Y-119940775D01*
X205410689Y-119969144D01*
X205427276Y-119984720D01*
X205439058Y-119992313D01*
X205481333Y-120035483D01*
X205530591Y-120081739D01*
X205537884Y-120093231D01*
X205541247Y-120096665D01*
X205578768Y-120157654D01*
X205618724Y-120220615D01*
X205641754Y-120291494D01*
X205664844Y-120359321D01*
X205665347Y-120364106D01*
X205669551Y-120377045D01*
X205673793Y-120444466D01*
X205680110Y-120504572D01*
X205678450Y-120518492D01*
X205679879Y-120541202D01*
X205668845Y-120599045D01*
X205662817Y-120649599D01*
X205655030Y-120671467D01*
X205649059Y-120702769D01*
X205627787Y-120747975D01*
X205613823Y-120787189D01*
X205596457Y-120814553D01*
X205579026Y-120851596D01*
X205552930Y-120883140D01*
X205535564Y-120910505D01*
X205506026Y-120939838D01*
X205474182Y-120978330D01*
X205448403Y-120997060D01*
X205431931Y-121013417D01*
X205388757Y-121040395D01*
X205341114Y-121075010D01*
X205319955Y-121083387D01*
X205308070Y-121090814D01*
X205251010Y-121110685D01*
X205188184Y-121135559D01*
X205174683Y-121137265D01*
X205170142Y-121138846D01*
X205098983Y-121146828D01*
X205065956Y-121151000D01*
X204441252Y-121151000D01*
X204320537Y-121136606D01*
X204263398Y-121115809D01*
X204233446Y-121110095D01*
X204205519Y-121094742D01*
X204183707Y-121086803D01*
X204140914Y-121059225D01*
X204089311Y-121030856D01*
X204072724Y-121015280D01*
X204060942Y-121007687D01*
X204018667Y-120964517D01*
X203969409Y-120918261D01*
X203962116Y-120906769D01*
X203958753Y-120903335D01*
X203921232Y-120842346D01*
X203881276Y-120779385D01*
X203858246Y-120708506D01*
X203835156Y-120640679D01*
X203834653Y-120635894D01*
X203830449Y-120622955D01*
X203826207Y-120555534D01*
X203819890Y-120495428D01*
X203821550Y-120481508D01*
X203820121Y-120458798D01*
X203831155Y-120400955D01*
X203837183Y-120350401D01*
X203844970Y-120328533D01*
X203850941Y-120297231D01*
X203872213Y-120252025D01*
X203886177Y-120212811D01*
X203903543Y-120185447D01*
X203920974Y-120148404D01*
X203947070Y-120116860D01*
X203964436Y-120089495D01*
X203993974Y-120060162D01*
X204025818Y-120021670D01*
X204051597Y-120002940D01*
X204068069Y-119986583D01*
X204111243Y-119959605D01*
X204158886Y-119924990D01*
X204180045Y-119916613D01*
X204191930Y-119909186D01*
X204248990Y-119889315D01*
X204311816Y-119864441D01*
X204325317Y-119862735D01*
X204329858Y-119861154D01*
X204401017Y-119853172D01*
X204434044Y-119849000D01*
X205058748Y-119849000D01*
X205179463Y-119863394D01*
X205179463Y-119863394D01*
G37*
G36*
X205179463Y-117863394D02*
G01*
X205236602Y-117884191D01*
X205266554Y-117889905D01*
X205294481Y-117905258D01*
X205316293Y-117913197D01*
X205359086Y-117940775D01*
X205410689Y-117969144D01*
X205427276Y-117984720D01*
X205439058Y-117992313D01*
X205481333Y-118035483D01*
X205530591Y-118081739D01*
X205537884Y-118093231D01*
X205541247Y-118096665D01*
X205578768Y-118157654D01*
X205618724Y-118220615D01*
X205641754Y-118291494D01*
X205664844Y-118359321D01*
X205665347Y-118364106D01*
X205669551Y-118377045D01*
X205673793Y-118444466D01*
X205680110Y-118504572D01*
X205678450Y-118518492D01*
X205679879Y-118541202D01*
X205668845Y-118599045D01*
X205662817Y-118649599D01*
X205655030Y-118671467D01*
X205649059Y-118702769D01*
X205627787Y-118747975D01*
X205613823Y-118787189D01*
X205596457Y-118814553D01*
X205579026Y-118851596D01*
X205552930Y-118883140D01*
X205535564Y-118910505D01*
X205506026Y-118939838D01*
X205474182Y-118978330D01*
X205448403Y-118997060D01*
X205431931Y-119013417D01*
X205388757Y-119040395D01*
X205341114Y-119075010D01*
X205319955Y-119083387D01*
X205308070Y-119090814D01*
X205251010Y-119110685D01*
X205188184Y-119135559D01*
X205174683Y-119137265D01*
X205170142Y-119138846D01*
X205098983Y-119146828D01*
X205065956Y-119151000D01*
X204441252Y-119151000D01*
X204320537Y-119136606D01*
X204263398Y-119115809D01*
X204233446Y-119110095D01*
X204205519Y-119094742D01*
X204183707Y-119086803D01*
X204140914Y-119059225D01*
X204089311Y-119030856D01*
X204072724Y-119015280D01*
X204060942Y-119007687D01*
X204018667Y-118964517D01*
X203969409Y-118918261D01*
X203962116Y-118906769D01*
X203958753Y-118903335D01*
X203921232Y-118842346D01*
X203881276Y-118779385D01*
X203858246Y-118708506D01*
X203835156Y-118640679D01*
X203834653Y-118635894D01*
X203830449Y-118622955D01*
X203826207Y-118555534D01*
X203819890Y-118495428D01*
X203821550Y-118481508D01*
X203820121Y-118458798D01*
X203831155Y-118400955D01*
X203837183Y-118350401D01*
X203844970Y-118328533D01*
X203850941Y-118297231D01*
X203872213Y-118252025D01*
X203886177Y-118212811D01*
X203903543Y-118185447D01*
X203920974Y-118148404D01*
X203947070Y-118116860D01*
X203964436Y-118089495D01*
X203993974Y-118060162D01*
X204025818Y-118021670D01*
X204051597Y-118002940D01*
X204068069Y-117986583D01*
X204111243Y-117959605D01*
X204158886Y-117924990D01*
X204180045Y-117916613D01*
X204191930Y-117909186D01*
X204248990Y-117889315D01*
X204311816Y-117864441D01*
X204325317Y-117862735D01*
X204329858Y-117861154D01*
X204401017Y-117853172D01*
X204434044Y-117849000D01*
X205058748Y-117849000D01*
X205179463Y-117863394D01*
X205179463Y-117863394D01*
G37*
G36*
X192676165Y-116217284D02*
G01*
X192852251Y-116239529D01*
X192857415Y-116241307D01*
X192866286Y-116242483D01*
X192967020Y-116279048D01*
X193062717Y-116311999D01*
X193073021Y-116317524D01*
X193089777Y-116323606D01*
X193177620Y-116373609D01*
X193261403Y-116418533D01*
X193275576Y-116429369D01*
X193296404Y-116441225D01*
X193369845Y-116501443D01*
X193440503Y-116555465D01*
X193456982Y-116572891D01*
X193480259Y-116591977D01*
X193538498Y-116659091D01*
X193595406Y-116719270D01*
X193612339Y-116744186D01*
X193636086Y-116771552D01*
X193679014Y-116842296D01*
X193722126Y-116905732D01*
X193737448Y-116938591D01*
X193759429Y-116974814D01*
X193787589Y-117046119D01*
X193817407Y-117110065D01*
X193828945Y-117150840D01*
X193846761Y-117195952D01*
X193861245Y-117264981D01*
X193878791Y-117326988D01*
X193884368Y-117375187D01*
X193895584Y-117428644D01*
X193898001Y-117493015D01*
X193904704Y-117550951D01*
X193902225Y-117605538D01*
X193904504Y-117666235D01*
X193896845Y-117724024D01*
X193894477Y-117776164D01*
X193882050Y-117835647D01*
X193873265Y-117901932D01*
X193857794Y-117951757D01*
X193848375Y-117996842D01*
X193824404Y-118059288D01*
X193802759Y-118128996D01*
X193781888Y-118170047D01*
X193767579Y-118207322D01*
X193730856Y-118270418D01*
X193695004Y-118340934D01*
X193671173Y-118372964D01*
X193654173Y-118402173D01*
X193603947Y-118463319D01*
X193553080Y-118531687D01*
X193528632Y-118555009D01*
X193511073Y-118576386D01*
X193447120Y-118632769D01*
X193381046Y-118695800D01*
X193358110Y-118711242D01*
X193341964Y-118725476D01*
X193264632Y-118774174D01*
X193183819Y-118828581D01*
X193164207Y-118837416D01*
X193151191Y-118845612D01*
X193061403Y-118883725D01*
X192967040Y-118926232D01*
X192952172Y-118930091D01*
X192943665Y-118933702D01*
X192842921Y-118958447D01*
X192736907Y-118985963D01*
X192727724Y-118986742D01*
X192724720Y-118987480D01*
X192614835Y-118996321D01*
X192559692Y-119001000D01*
X191461785Y-119001000D01*
X191323835Y-118982716D01*
X191147749Y-118960471D01*
X191142585Y-118958693D01*
X191133714Y-118957517D01*
X191032980Y-118920952D01*
X190937283Y-118888001D01*
X190926979Y-118882476D01*
X190910223Y-118876394D01*
X190822380Y-118826391D01*
X190738597Y-118781467D01*
X190724424Y-118770631D01*
X190703596Y-118758775D01*
X190630155Y-118698557D01*
X190559497Y-118644535D01*
X190543018Y-118627109D01*
X190519741Y-118608023D01*
X190461502Y-118540909D01*
X190404594Y-118480730D01*
X190387661Y-118455814D01*
X190363914Y-118428448D01*
X190320986Y-118357704D01*
X190277874Y-118294268D01*
X190262552Y-118261409D01*
X190240571Y-118225186D01*
X190212411Y-118153881D01*
X190182593Y-118089935D01*
X190171055Y-118049160D01*
X190153239Y-118004048D01*
X190138755Y-117935019D01*
X190121209Y-117873012D01*
X190115632Y-117824813D01*
X190104416Y-117771356D01*
X190101999Y-117706985D01*
X190095296Y-117649049D01*
X190097775Y-117594462D01*
X190095496Y-117533765D01*
X190103155Y-117475976D01*
X190105523Y-117423836D01*
X190117950Y-117364353D01*
X190126735Y-117298068D01*
X190142206Y-117248243D01*
X190151625Y-117203158D01*
X190175596Y-117140712D01*
X190197241Y-117071004D01*
X190218112Y-117029953D01*
X190232421Y-116992678D01*
X190269144Y-116929582D01*
X190304996Y-116859066D01*
X190328827Y-116827036D01*
X190345827Y-116797827D01*
X190396053Y-116736681D01*
X190446920Y-116668313D01*
X190471368Y-116644991D01*
X190488927Y-116623614D01*
X190552880Y-116567231D01*
X190618954Y-116504200D01*
X190641890Y-116488758D01*
X190658036Y-116474524D01*
X190735368Y-116425826D01*
X190816181Y-116371419D01*
X190835793Y-116362584D01*
X190848809Y-116354388D01*
X190938597Y-116316275D01*
X191032960Y-116273768D01*
X191047828Y-116269909D01*
X191056335Y-116266298D01*
X191157079Y-116241553D01*
X191263093Y-116214037D01*
X191272276Y-116213258D01*
X191275280Y-116212520D01*
X191385165Y-116203679D01*
X191440308Y-116199000D01*
X192538215Y-116199000D01*
X192676165Y-116217284D01*
X192676165Y-116217284D01*
G37*
G36*
X187176165Y-116217284D02*
G01*
X187352251Y-116239529D01*
X187357415Y-116241307D01*
X187366286Y-116242483D01*
X187467020Y-116279048D01*
X187562717Y-116311999D01*
X187573021Y-116317524D01*
X187589777Y-116323606D01*
X187677620Y-116373609D01*
X187761403Y-116418533D01*
X187775576Y-116429369D01*
X187796404Y-116441225D01*
X187869845Y-116501443D01*
X187940503Y-116555465D01*
X187956982Y-116572891D01*
X187980259Y-116591977D01*
X188038498Y-116659091D01*
X188095406Y-116719270D01*
X188112339Y-116744186D01*
X188136086Y-116771552D01*
X188179014Y-116842296D01*
X188222126Y-116905732D01*
X188237448Y-116938591D01*
X188259429Y-116974814D01*
X188287589Y-117046119D01*
X188317407Y-117110065D01*
X188328945Y-117150840D01*
X188346761Y-117195952D01*
X188361245Y-117264981D01*
X188378791Y-117326988D01*
X188384368Y-117375187D01*
X188395584Y-117428644D01*
X188398001Y-117493015D01*
X188404704Y-117550951D01*
X188402225Y-117605538D01*
X188404504Y-117666235D01*
X188396845Y-117724024D01*
X188394477Y-117776164D01*
X188382050Y-117835647D01*
X188373265Y-117901932D01*
X188357794Y-117951757D01*
X188348375Y-117996842D01*
X188324404Y-118059288D01*
X188302759Y-118128996D01*
X188281888Y-118170047D01*
X188267579Y-118207322D01*
X188230856Y-118270418D01*
X188195004Y-118340934D01*
X188171173Y-118372964D01*
X188154173Y-118402173D01*
X188103947Y-118463319D01*
X188053080Y-118531687D01*
X188028632Y-118555009D01*
X188011073Y-118576386D01*
X187947120Y-118632769D01*
X187881046Y-118695800D01*
X187858110Y-118711242D01*
X187841964Y-118725476D01*
X187764632Y-118774174D01*
X187683819Y-118828581D01*
X187664207Y-118837416D01*
X187651191Y-118845612D01*
X187561403Y-118883725D01*
X187467040Y-118926232D01*
X187452172Y-118930091D01*
X187443665Y-118933702D01*
X187342921Y-118958447D01*
X187236907Y-118985963D01*
X187227724Y-118986742D01*
X187224720Y-118987480D01*
X187114835Y-118996321D01*
X187059692Y-119001000D01*
X185961785Y-119001000D01*
X185823835Y-118982716D01*
X185647749Y-118960471D01*
X185642585Y-118958693D01*
X185633714Y-118957517D01*
X185532980Y-118920952D01*
X185437283Y-118888001D01*
X185426979Y-118882476D01*
X185410223Y-118876394D01*
X185322380Y-118826391D01*
X185238597Y-118781467D01*
X185224424Y-118770631D01*
X185203596Y-118758775D01*
X185130155Y-118698557D01*
X185059497Y-118644535D01*
X185043018Y-118627109D01*
X185019741Y-118608023D01*
X184961502Y-118540909D01*
X184904594Y-118480730D01*
X184887661Y-118455814D01*
X184863914Y-118428448D01*
X184820986Y-118357704D01*
X184777874Y-118294268D01*
X184762552Y-118261409D01*
X184740571Y-118225186D01*
X184712411Y-118153881D01*
X184682593Y-118089935D01*
X184671055Y-118049160D01*
X184653239Y-118004048D01*
X184638755Y-117935019D01*
X184621209Y-117873012D01*
X184615632Y-117824813D01*
X184604416Y-117771356D01*
X184601999Y-117706985D01*
X184595296Y-117649049D01*
X184597775Y-117594462D01*
X184595496Y-117533765D01*
X184603155Y-117475976D01*
X184605523Y-117423836D01*
X184617950Y-117364353D01*
X184626735Y-117298068D01*
X184642206Y-117248243D01*
X184651625Y-117203158D01*
X184675596Y-117140712D01*
X184697241Y-117071004D01*
X184718112Y-117029953D01*
X184732421Y-116992678D01*
X184769144Y-116929582D01*
X184804996Y-116859066D01*
X184828827Y-116827036D01*
X184845827Y-116797827D01*
X184896053Y-116736681D01*
X184946920Y-116668313D01*
X184971368Y-116644991D01*
X184988927Y-116623614D01*
X185052880Y-116567231D01*
X185118954Y-116504200D01*
X185141890Y-116488758D01*
X185158036Y-116474524D01*
X185235368Y-116425826D01*
X185316181Y-116371419D01*
X185335793Y-116362584D01*
X185348809Y-116354388D01*
X185438597Y-116316275D01*
X185532960Y-116273768D01*
X185547828Y-116269909D01*
X185556335Y-116266298D01*
X185657079Y-116241553D01*
X185763093Y-116214037D01*
X185772276Y-116213258D01*
X185775280Y-116212520D01*
X185885165Y-116203679D01*
X185940308Y-116199000D01*
X187038215Y-116199000D01*
X187176165Y-116217284D01*
X187176165Y-116217284D01*
G37*
G36*
X196438360Y-116943835D02*
G01*
X196519397Y-116970166D01*
X196606663Y-116997848D01*
X196609655Y-116999493D01*
X196618488Y-117002363D01*
X196690466Y-117043919D01*
X196761499Y-117082970D01*
X196768986Y-117089253D01*
X196782511Y-117097061D01*
X196840259Y-117149057D01*
X196896857Y-117196549D01*
X196906962Y-117209118D01*
X196923261Y-117223793D01*
X196965454Y-117281867D01*
X197007579Y-117334260D01*
X197017994Y-117354182D01*
X197034586Y-117377019D01*
X197061297Y-117437012D01*
X197089439Y-117490843D01*
X197097582Y-117518510D01*
X197111621Y-117550042D01*
X197123992Y-117608241D01*
X197139328Y-117660349D01*
X197142518Y-117695401D01*
X197150999Y-117735301D01*
X197150999Y-117788592D01*
X197155343Y-117836324D01*
X197150999Y-117877653D01*
X197150999Y-117924699D01*
X197141217Y-117970721D01*
X197136873Y-118012047D01*
X197122702Y-118057827D01*
X197111621Y-118109958D01*
X197095028Y-118147226D01*
X197084622Y-118180843D01*
X197058789Y-118228620D01*
X197034586Y-118282981D01*
X197014298Y-118310905D01*
X197000580Y-118336276D01*
X196961859Y-118383082D01*
X196923261Y-118436207D01*
X196902284Y-118455095D01*
X196887952Y-118472419D01*
X196835845Y-118514917D01*
X196782511Y-118562939D01*
X196763524Y-118573901D01*
X196751025Y-118584095D01*
X196685780Y-118618786D01*
X196618488Y-118657637D01*
X196603636Y-118662463D01*
X196595003Y-118667053D01*
X196517430Y-118690473D01*
X196438360Y-118716165D01*
X196429114Y-118717137D01*
X196425851Y-118718122D01*
X196334710Y-118727059D01*
X196297211Y-118731000D01*
X196202789Y-118731000D01*
X196061640Y-118716165D01*
X195980603Y-118689834D01*
X195893337Y-118662152D01*
X195890345Y-118660507D01*
X195881512Y-118657637D01*
X195809534Y-118616081D01*
X195738501Y-118577030D01*
X195731014Y-118570747D01*
X195717489Y-118562939D01*
X195659741Y-118510943D01*
X195603143Y-118463451D01*
X195593038Y-118450882D01*
X195576739Y-118436207D01*
X195534546Y-118378133D01*
X195492421Y-118325740D01*
X195482006Y-118305818D01*
X195465414Y-118282981D01*
X195438703Y-118222988D01*
X195410561Y-118169157D01*
X195402418Y-118141490D01*
X195388379Y-118109958D01*
X195376008Y-118051759D01*
X195360672Y-117999651D01*
X195357482Y-117964599D01*
X195349001Y-117924699D01*
X195349001Y-117871408D01*
X195344657Y-117823676D01*
X195349001Y-117782347D01*
X195349001Y-117735301D01*
X195358783Y-117689279D01*
X195363127Y-117647953D01*
X195377298Y-117602173D01*
X195388379Y-117550042D01*
X195404972Y-117512774D01*
X195415378Y-117479157D01*
X195441211Y-117431380D01*
X195465414Y-117377019D01*
X195485702Y-117349095D01*
X195499420Y-117323724D01*
X195538141Y-117276918D01*
X195576739Y-117223793D01*
X195597716Y-117204905D01*
X195612048Y-117187581D01*
X195664155Y-117145083D01*
X195717489Y-117097061D01*
X195736476Y-117086099D01*
X195748975Y-117075905D01*
X195814220Y-117041214D01*
X195881512Y-117002363D01*
X195896364Y-116997537D01*
X195904997Y-116992947D01*
X195982570Y-116969527D01*
X196061640Y-116943835D01*
X196070886Y-116942863D01*
X196074149Y-116941878D01*
X196165290Y-116932941D01*
X196202789Y-116929000D01*
X196297211Y-116929000D01*
X196438360Y-116943835D01*
X196438360Y-116943835D01*
G37*
G36*
X200869899Y-116851959D02*
G01*
X200886769Y-116863231D01*
X200898041Y-116880101D01*
X200904448Y-116912312D01*
X200904448Y-118587688D01*
X200901999Y-118600000D01*
X200898041Y-118619899D01*
X200886769Y-118636769D01*
X200869899Y-118648041D01*
X200850000Y-118651999D01*
X200837688Y-118654448D01*
X199162312Y-118654448D01*
X199130101Y-118648041D01*
X199113231Y-118636769D01*
X199101959Y-118619899D01*
X199095552Y-118587688D01*
X199095552Y-116912312D01*
X199101959Y-116880101D01*
X199113231Y-116863231D01*
X199130101Y-116851959D01*
X199162312Y-116845552D01*
X200837688Y-116845552D01*
X200869899Y-116851959D01*
X200869899Y-116851959D01*
G37*
G36*
X205179463Y-115863394D02*
G01*
X205236602Y-115884191D01*
X205266554Y-115889905D01*
X205294481Y-115905258D01*
X205316293Y-115913197D01*
X205359086Y-115940775D01*
X205410689Y-115969144D01*
X205427276Y-115984720D01*
X205439058Y-115992313D01*
X205481333Y-116035483D01*
X205530591Y-116081739D01*
X205537884Y-116093231D01*
X205541247Y-116096665D01*
X205578768Y-116157654D01*
X205618724Y-116220615D01*
X205641754Y-116291494D01*
X205664844Y-116359321D01*
X205665347Y-116364106D01*
X205669551Y-116377045D01*
X205673793Y-116444466D01*
X205680110Y-116504572D01*
X205678450Y-116518492D01*
X205679879Y-116541202D01*
X205668845Y-116599045D01*
X205662817Y-116649599D01*
X205655030Y-116671467D01*
X205649059Y-116702769D01*
X205627787Y-116747975D01*
X205613823Y-116787189D01*
X205596457Y-116814553D01*
X205579026Y-116851596D01*
X205552930Y-116883140D01*
X205535564Y-116910505D01*
X205506026Y-116939838D01*
X205474182Y-116978330D01*
X205448403Y-116997060D01*
X205431931Y-117013417D01*
X205388757Y-117040395D01*
X205341114Y-117075010D01*
X205319955Y-117083387D01*
X205308070Y-117090814D01*
X205251010Y-117110685D01*
X205188184Y-117135559D01*
X205174683Y-117137265D01*
X205170142Y-117138846D01*
X205098983Y-117146828D01*
X205065956Y-117151000D01*
X204441252Y-117151000D01*
X204320537Y-117136606D01*
X204263398Y-117115809D01*
X204233446Y-117110095D01*
X204205519Y-117094742D01*
X204183707Y-117086803D01*
X204140914Y-117059225D01*
X204089311Y-117030856D01*
X204072724Y-117015280D01*
X204060942Y-117007687D01*
X204018667Y-116964517D01*
X203969409Y-116918261D01*
X203962116Y-116906769D01*
X203958753Y-116903335D01*
X203921232Y-116842346D01*
X203881276Y-116779385D01*
X203858246Y-116708506D01*
X203835156Y-116640679D01*
X203834653Y-116635894D01*
X203830449Y-116622955D01*
X203826207Y-116555534D01*
X203819890Y-116495428D01*
X203821550Y-116481508D01*
X203820121Y-116458798D01*
X203831155Y-116400955D01*
X203837183Y-116350401D01*
X203844970Y-116328533D01*
X203850941Y-116297231D01*
X203872213Y-116252025D01*
X203886177Y-116212811D01*
X203903543Y-116185447D01*
X203920974Y-116148404D01*
X203947070Y-116116860D01*
X203964436Y-116089495D01*
X203993974Y-116060162D01*
X204025818Y-116021670D01*
X204051597Y-116002940D01*
X204068069Y-115986583D01*
X204111243Y-115959605D01*
X204158886Y-115924990D01*
X204180045Y-115916613D01*
X204191930Y-115909186D01*
X204248990Y-115889315D01*
X204311816Y-115864441D01*
X204325317Y-115862735D01*
X204329858Y-115861154D01*
X204401017Y-115853172D01*
X204434044Y-115849000D01*
X205058748Y-115849000D01*
X205179463Y-115863394D01*
X205179463Y-115863394D01*
G37*
G36*
X196438360Y-114403835D02*
G01*
X196519397Y-114430166D01*
X196606663Y-114457848D01*
X196609655Y-114459493D01*
X196618488Y-114462363D01*
X196690466Y-114503919D01*
X196761499Y-114542970D01*
X196768986Y-114549253D01*
X196782511Y-114557061D01*
X196840259Y-114609057D01*
X196896857Y-114656549D01*
X196906962Y-114669118D01*
X196923261Y-114683793D01*
X196965454Y-114741867D01*
X197007579Y-114794260D01*
X197017994Y-114814182D01*
X197034586Y-114837019D01*
X197061297Y-114897012D01*
X197089439Y-114950843D01*
X197097582Y-114978510D01*
X197111621Y-115010042D01*
X197123992Y-115068241D01*
X197139328Y-115120349D01*
X197142518Y-115155401D01*
X197150999Y-115195301D01*
X197150999Y-115248592D01*
X197155343Y-115296324D01*
X197150999Y-115337653D01*
X197150999Y-115384699D01*
X197141217Y-115430721D01*
X197136873Y-115472047D01*
X197122702Y-115517827D01*
X197111621Y-115569958D01*
X197095028Y-115607226D01*
X197084622Y-115640843D01*
X197058789Y-115688620D01*
X197034586Y-115742981D01*
X197014298Y-115770905D01*
X197000580Y-115796276D01*
X196961859Y-115843082D01*
X196923261Y-115896207D01*
X196902284Y-115915095D01*
X196887952Y-115932419D01*
X196835845Y-115974917D01*
X196782511Y-116022939D01*
X196763524Y-116033901D01*
X196751025Y-116044095D01*
X196685780Y-116078786D01*
X196618488Y-116117637D01*
X196603636Y-116122463D01*
X196595003Y-116127053D01*
X196517430Y-116150473D01*
X196438360Y-116176165D01*
X196429114Y-116177137D01*
X196425851Y-116178122D01*
X196334710Y-116187059D01*
X196297211Y-116191000D01*
X196202789Y-116191000D01*
X196061640Y-116176165D01*
X195980603Y-116149834D01*
X195893337Y-116122152D01*
X195890345Y-116120507D01*
X195881512Y-116117637D01*
X195809534Y-116076081D01*
X195738501Y-116037030D01*
X195731014Y-116030747D01*
X195717489Y-116022939D01*
X195659741Y-115970943D01*
X195603143Y-115923451D01*
X195593038Y-115910882D01*
X195576739Y-115896207D01*
X195534546Y-115838133D01*
X195492421Y-115785740D01*
X195482006Y-115765818D01*
X195465414Y-115742981D01*
X195438703Y-115682988D01*
X195410561Y-115629157D01*
X195402418Y-115601490D01*
X195388379Y-115569958D01*
X195376008Y-115511759D01*
X195360672Y-115459651D01*
X195357482Y-115424599D01*
X195349001Y-115384699D01*
X195349001Y-115331408D01*
X195344657Y-115283676D01*
X195349001Y-115242347D01*
X195349001Y-115195301D01*
X195358783Y-115149279D01*
X195363127Y-115107953D01*
X195377298Y-115062173D01*
X195388379Y-115010042D01*
X195404972Y-114972774D01*
X195415378Y-114939157D01*
X195441211Y-114891380D01*
X195465414Y-114837019D01*
X195485702Y-114809095D01*
X195499420Y-114783724D01*
X195538141Y-114736918D01*
X195576739Y-114683793D01*
X195597716Y-114664905D01*
X195612048Y-114647581D01*
X195664155Y-114605083D01*
X195717489Y-114557061D01*
X195736476Y-114546099D01*
X195748975Y-114535905D01*
X195814220Y-114501214D01*
X195881512Y-114462363D01*
X195896364Y-114457537D01*
X195904997Y-114452947D01*
X195982570Y-114429527D01*
X196061640Y-114403835D01*
X196070886Y-114402863D01*
X196074149Y-114401878D01*
X196165290Y-114392941D01*
X196202789Y-114389000D01*
X196297211Y-114389000D01*
X196438360Y-114403835D01*
X196438360Y-114403835D01*
G37*
G36*
X200188360Y-114323835D02*
G01*
X200269397Y-114350166D01*
X200356663Y-114377848D01*
X200359655Y-114379493D01*
X200368488Y-114382363D01*
X200440466Y-114423919D01*
X200511499Y-114462970D01*
X200518986Y-114469253D01*
X200532511Y-114477061D01*
X200590259Y-114529057D01*
X200646857Y-114576549D01*
X200656962Y-114589118D01*
X200673261Y-114603793D01*
X200715454Y-114661867D01*
X200757579Y-114714260D01*
X200767994Y-114734182D01*
X200784586Y-114757019D01*
X200811297Y-114817012D01*
X200839439Y-114870843D01*
X200847582Y-114898510D01*
X200861621Y-114930042D01*
X200873992Y-114988241D01*
X200889328Y-115040349D01*
X200892518Y-115075401D01*
X200900999Y-115115301D01*
X200900999Y-115168592D01*
X200905343Y-115216324D01*
X200900999Y-115257653D01*
X200900999Y-115304699D01*
X200891217Y-115350721D01*
X200886873Y-115392047D01*
X200872702Y-115437827D01*
X200861621Y-115489958D01*
X200845028Y-115527226D01*
X200834622Y-115560843D01*
X200808789Y-115608620D01*
X200784586Y-115662981D01*
X200764298Y-115690905D01*
X200750580Y-115716276D01*
X200711859Y-115763082D01*
X200673261Y-115816207D01*
X200652284Y-115835095D01*
X200637952Y-115852419D01*
X200585845Y-115894917D01*
X200532511Y-115942939D01*
X200513524Y-115953901D01*
X200501025Y-115964095D01*
X200435780Y-115998786D01*
X200368488Y-116037637D01*
X200353636Y-116042463D01*
X200345003Y-116047053D01*
X200267430Y-116070473D01*
X200188360Y-116096165D01*
X200179114Y-116097137D01*
X200175851Y-116098122D01*
X200084710Y-116107059D01*
X200047211Y-116111000D01*
X199952789Y-116111000D01*
X199811640Y-116096165D01*
X199730603Y-116069834D01*
X199643337Y-116042152D01*
X199640345Y-116040507D01*
X199631512Y-116037637D01*
X199559534Y-115996081D01*
X199488501Y-115957030D01*
X199481014Y-115950747D01*
X199467489Y-115942939D01*
X199409741Y-115890943D01*
X199353143Y-115843451D01*
X199343038Y-115830882D01*
X199326739Y-115816207D01*
X199284546Y-115758133D01*
X199242421Y-115705740D01*
X199232006Y-115685818D01*
X199215414Y-115662981D01*
X199188703Y-115602988D01*
X199160561Y-115549157D01*
X199152418Y-115521490D01*
X199138379Y-115489958D01*
X199126008Y-115431759D01*
X199110672Y-115379651D01*
X199107482Y-115344599D01*
X199099001Y-115304699D01*
X199099001Y-115251408D01*
X199094657Y-115203676D01*
X199099001Y-115162347D01*
X199099001Y-115115301D01*
X199108783Y-115069279D01*
X199113127Y-115027953D01*
X199127298Y-114982173D01*
X199138379Y-114930042D01*
X199154972Y-114892774D01*
X199165378Y-114859157D01*
X199191211Y-114811380D01*
X199215414Y-114757019D01*
X199235702Y-114729095D01*
X199249420Y-114703724D01*
X199288141Y-114656918D01*
X199326739Y-114603793D01*
X199347716Y-114584905D01*
X199362048Y-114567581D01*
X199414155Y-114525083D01*
X199467489Y-114477061D01*
X199486476Y-114466099D01*
X199498975Y-114455905D01*
X199564220Y-114421214D01*
X199631512Y-114382363D01*
X199646364Y-114377537D01*
X199654997Y-114372947D01*
X199732570Y-114349527D01*
X199811640Y-114323835D01*
X199820886Y-114322863D01*
X199824149Y-114321878D01*
X199915290Y-114312941D01*
X199952789Y-114309000D01*
X200047211Y-114309000D01*
X200188360Y-114323835D01*
X200188360Y-114323835D01*
G37*
G36*
X205179463Y-113863394D02*
G01*
X205236602Y-113884191D01*
X205266554Y-113889905D01*
X205294481Y-113905258D01*
X205316293Y-113913197D01*
X205359086Y-113940775D01*
X205410689Y-113969144D01*
X205427276Y-113984720D01*
X205439058Y-113992313D01*
X205481333Y-114035483D01*
X205530591Y-114081739D01*
X205537884Y-114093231D01*
X205541247Y-114096665D01*
X205578768Y-114157654D01*
X205618724Y-114220615D01*
X205641754Y-114291494D01*
X205664844Y-114359321D01*
X205665347Y-114364106D01*
X205669551Y-114377045D01*
X205673793Y-114444466D01*
X205680110Y-114504572D01*
X205678450Y-114518492D01*
X205679879Y-114541202D01*
X205668845Y-114599045D01*
X205662817Y-114649599D01*
X205655030Y-114671467D01*
X205649059Y-114702769D01*
X205627787Y-114747975D01*
X205613823Y-114787189D01*
X205596457Y-114814553D01*
X205579026Y-114851596D01*
X205552930Y-114883140D01*
X205535564Y-114910505D01*
X205506026Y-114939838D01*
X205474182Y-114978330D01*
X205448403Y-114997060D01*
X205431931Y-115013417D01*
X205388757Y-115040395D01*
X205341114Y-115075010D01*
X205319955Y-115083387D01*
X205308070Y-115090814D01*
X205251010Y-115110685D01*
X205188184Y-115135559D01*
X205174683Y-115137265D01*
X205170142Y-115138846D01*
X205098983Y-115146828D01*
X205065956Y-115151000D01*
X204441252Y-115151000D01*
X204320537Y-115136606D01*
X204263398Y-115115809D01*
X204233446Y-115110095D01*
X204205519Y-115094742D01*
X204183707Y-115086803D01*
X204140914Y-115059225D01*
X204089311Y-115030856D01*
X204072724Y-115015280D01*
X204060942Y-115007687D01*
X204018667Y-114964517D01*
X203969409Y-114918261D01*
X203962116Y-114906769D01*
X203958753Y-114903335D01*
X203921232Y-114842346D01*
X203881276Y-114779385D01*
X203858246Y-114708506D01*
X203835156Y-114640679D01*
X203834653Y-114635894D01*
X203830449Y-114622955D01*
X203826207Y-114555534D01*
X203819890Y-114495428D01*
X203821550Y-114481508D01*
X203820121Y-114458798D01*
X203831155Y-114400955D01*
X203837183Y-114350401D01*
X203844970Y-114328533D01*
X203850941Y-114297231D01*
X203872213Y-114252025D01*
X203886177Y-114212811D01*
X203903543Y-114185447D01*
X203920974Y-114148404D01*
X203947070Y-114116860D01*
X203964436Y-114089495D01*
X203993974Y-114060162D01*
X204025818Y-114021670D01*
X204051597Y-114002940D01*
X204068069Y-113986583D01*
X204111243Y-113959605D01*
X204158886Y-113924990D01*
X204180045Y-113916613D01*
X204191930Y-113909186D01*
X204248990Y-113889315D01*
X204311816Y-113864441D01*
X204325317Y-113862735D01*
X204329858Y-113861154D01*
X204401017Y-113853172D01*
X204434044Y-113849000D01*
X205058748Y-113849000D01*
X205179463Y-113863394D01*
X205179463Y-113863394D01*
G37*
G36*
X179214870Y-111847503D02*
G01*
X179270587Y-111845557D01*
X179337861Y-111854056D01*
X179400350Y-111857385D01*
X179456239Y-111869010D01*
X179518205Y-111876838D01*
X179576838Y-111894095D01*
X179631387Y-111905441D01*
X179691309Y-111927785D01*
X179757637Y-111947307D01*
X179806700Y-111970814D01*
X179852485Y-111987887D01*
X179914355Y-112022394D01*
X179982722Y-112055150D01*
X180021870Y-112082359D01*
X180058580Y-112102833D01*
X180119992Y-112150555D01*
X180187669Y-112197592D01*
X180217117Y-112226029D01*
X180244905Y-112247623D01*
X180303181Y-112309140D01*
X180367207Y-112370969D01*
X180387690Y-112398349D01*
X180407196Y-112418940D01*
X180459539Y-112494391D01*
X180516715Y-112570821D01*
X180529424Y-112595130D01*
X180541703Y-112612831D01*
X180585241Y-112701900D01*
X180632347Y-112792005D01*
X180638868Y-112811606D01*
X180645330Y-112824827D01*
X180677204Y-112926849D01*
X180711129Y-113028831D01*
X180713351Y-113042547D01*
X180715703Y-113050077D01*
X180733218Y-113165216D01*
X180751033Y-113275207D01*
X180748079Y-113557248D01*
X180741707Y-113591966D01*
X180741166Y-113610197D01*
X180721162Y-113703910D01*
X180703024Y-113802734D01*
X180695639Y-113823474D01*
X180692281Y-113839204D01*
X180654978Y-113937664D01*
X180619300Y-114037859D01*
X180611956Y-114051218D01*
X180608676Y-114059875D01*
X180552486Y-114159393D01*
X180499061Y-114256573D01*
X180493852Y-114263240D01*
X180492659Y-114265353D01*
X180407525Y-114373734D01*
X180345400Y-114453249D01*
X180264204Y-114528438D01*
X180174728Y-114612314D01*
X180170477Y-114615230D01*
X180162271Y-114622829D01*
X180071065Y-114683426D01*
X179980132Y-114745806D01*
X179969346Y-114751009D01*
X179954386Y-114760948D01*
X179859597Y-114803946D01*
X179767593Y-114848324D01*
X179749603Y-114853841D01*
X179727091Y-114864053D01*
X179632529Y-114889745D01*
X179541988Y-114917512D01*
X179516633Y-114921234D01*
X179486237Y-114929492D01*
X179395124Y-114939068D01*
X179308513Y-114951781D01*
X179276058Y-114951583D01*
X179238018Y-114955581D01*
X179153077Y-114950832D01*
X179072537Y-114950340D01*
X179033732Y-114944159D01*
X178988820Y-114941648D01*
X178912188Y-114924799D01*
X178839503Y-114913222D01*
X178795572Y-114899160D01*
X178745056Y-114888053D01*
X178678282Y-114861615D01*
X178614751Y-114841279D01*
X178567318Y-114817681D01*
X178512997Y-114796174D01*
X178457052Y-114762824D01*
X178403481Y-114736173D01*
X178354562Y-114701729D01*
X178298612Y-114668376D01*
X178253850Y-114630816D01*
X178210537Y-114600319D01*
X178162434Y-114554109D01*
X178107418Y-114507945D01*
X178073622Y-114468792D01*
X178040359Y-114436838D01*
X177995609Y-114378413D01*
X177944333Y-114319009D01*
X177920758Y-114280688D01*
X177896869Y-114249499D01*
X177858132Y-114178891D01*
X177813554Y-114106430D01*
X177798980Y-114071071D01*
X177783367Y-114042612D01*
X177753347Y-113960357D01*
X177718444Y-113875676D01*
X177711254Y-113845023D01*
X177702464Y-113820937D01*
X177683818Y-113728049D01*
X177661451Y-113632684D01*
X177659727Y-113608029D01*
X177656023Y-113589577D01*
X177651300Y-113487527D01*
X177644040Y-113383705D01*
X177645668Y-113365820D01*
X177645114Y-113353855D01*
X177656738Y-113244177D01*
X177666661Y-113135146D01*
X177669442Y-113124316D01*
X177669985Y-113119190D01*
X177701189Y-113000668D01*
X177728731Y-112893401D01*
X177769091Y-112801021D01*
X177823971Y-112674502D01*
X177825264Y-112672445D01*
X177828652Y-112664690D01*
X177888740Y-112571452D01*
X177949542Y-112474713D01*
X177955595Y-112467713D01*
X177963855Y-112454896D01*
X178035058Y-112375817D01*
X178103893Y-112296212D01*
X178116124Y-112285785D01*
X178130861Y-112269417D01*
X178209191Y-112206438D01*
X178283465Y-112143114D01*
X178302935Y-112131065D01*
X178325373Y-112113025D01*
X178407267Y-112066503D01*
X178484129Y-112018939D01*
X178511484Y-112007299D01*
X178542387Y-111989744D01*
X178624567Y-111959182D01*
X178701259Y-111926549D01*
X178736685Y-111917486D01*
X178776320Y-111902746D01*
X178855882Y-111886992D01*
X178929877Y-111868062D01*
X178973059Y-111863790D01*
X179021153Y-111854267D01*
X179095594Y-111851668D01*
X179164709Y-111844830D01*
X179214870Y-111847503D01*
X179214870Y-111847503D01*
G37*
G36*
X187176165Y-112017284D02*
G01*
X187352251Y-112039529D01*
X187357415Y-112041307D01*
X187366286Y-112042483D01*
X187467020Y-112079048D01*
X187562717Y-112111999D01*
X187573021Y-112117524D01*
X187589777Y-112123606D01*
X187677620Y-112173609D01*
X187761403Y-112218533D01*
X187775576Y-112229369D01*
X187796404Y-112241225D01*
X187869845Y-112301443D01*
X187940503Y-112355465D01*
X187956982Y-112372891D01*
X187980259Y-112391977D01*
X188038498Y-112459091D01*
X188095406Y-112519270D01*
X188112339Y-112544186D01*
X188136086Y-112571552D01*
X188179014Y-112642296D01*
X188222126Y-112705732D01*
X188237448Y-112738591D01*
X188259429Y-112774814D01*
X188287589Y-112846119D01*
X188317407Y-112910065D01*
X188328945Y-112950840D01*
X188346761Y-112995952D01*
X188361245Y-113064981D01*
X188378791Y-113126988D01*
X188384368Y-113175187D01*
X188395584Y-113228644D01*
X188398001Y-113293015D01*
X188404704Y-113350951D01*
X188402225Y-113405538D01*
X188404504Y-113466235D01*
X188396845Y-113524024D01*
X188394477Y-113576164D01*
X188382050Y-113635647D01*
X188373265Y-113701932D01*
X188357794Y-113751757D01*
X188348375Y-113796842D01*
X188324404Y-113859288D01*
X188302759Y-113928996D01*
X188281888Y-113970047D01*
X188267579Y-114007322D01*
X188230856Y-114070418D01*
X188195004Y-114140934D01*
X188171173Y-114172964D01*
X188154173Y-114202173D01*
X188103947Y-114263319D01*
X188053080Y-114331687D01*
X188028632Y-114355009D01*
X188011073Y-114376386D01*
X187947120Y-114432769D01*
X187881046Y-114495800D01*
X187858110Y-114511242D01*
X187841964Y-114525476D01*
X187764632Y-114574174D01*
X187683819Y-114628581D01*
X187664207Y-114637416D01*
X187651191Y-114645612D01*
X187561403Y-114683725D01*
X187467040Y-114726232D01*
X187452172Y-114730091D01*
X187443665Y-114733702D01*
X187342921Y-114758447D01*
X187236907Y-114785963D01*
X187227724Y-114786742D01*
X187224720Y-114787480D01*
X187114835Y-114796321D01*
X187059692Y-114801000D01*
X185961785Y-114801000D01*
X185823835Y-114782716D01*
X185647749Y-114760471D01*
X185642585Y-114758693D01*
X185633714Y-114757517D01*
X185532980Y-114720952D01*
X185437283Y-114688001D01*
X185426979Y-114682476D01*
X185410223Y-114676394D01*
X185322380Y-114626391D01*
X185238597Y-114581467D01*
X185224424Y-114570631D01*
X185203596Y-114558775D01*
X185130155Y-114498557D01*
X185059497Y-114444535D01*
X185043018Y-114427109D01*
X185019741Y-114408023D01*
X184961502Y-114340909D01*
X184904594Y-114280730D01*
X184887661Y-114255814D01*
X184863914Y-114228448D01*
X184820986Y-114157704D01*
X184777874Y-114094268D01*
X184762552Y-114061409D01*
X184740571Y-114025186D01*
X184712411Y-113953881D01*
X184682593Y-113889935D01*
X184671055Y-113849160D01*
X184653239Y-113804048D01*
X184638755Y-113735019D01*
X184621209Y-113673012D01*
X184615632Y-113624813D01*
X184604416Y-113571356D01*
X184601999Y-113506985D01*
X184595296Y-113449049D01*
X184597775Y-113394462D01*
X184595496Y-113333765D01*
X184603155Y-113275976D01*
X184605523Y-113223836D01*
X184617950Y-113164353D01*
X184626735Y-113098068D01*
X184642206Y-113048243D01*
X184651625Y-113003158D01*
X184675596Y-112940712D01*
X184697241Y-112871004D01*
X184718112Y-112829953D01*
X184732421Y-112792678D01*
X184769144Y-112729582D01*
X184804996Y-112659066D01*
X184828827Y-112627036D01*
X184845827Y-112597827D01*
X184896053Y-112536681D01*
X184946920Y-112468313D01*
X184971368Y-112444991D01*
X184988927Y-112423614D01*
X185052880Y-112367231D01*
X185118954Y-112304200D01*
X185141890Y-112288758D01*
X185158036Y-112274524D01*
X185235368Y-112225826D01*
X185316181Y-112171419D01*
X185335793Y-112162584D01*
X185348809Y-112154388D01*
X185438597Y-112116275D01*
X185532960Y-112073768D01*
X185547828Y-112069909D01*
X185556335Y-112066298D01*
X185657079Y-112041553D01*
X185763093Y-112014037D01*
X185772276Y-112013258D01*
X185775280Y-112012520D01*
X185885165Y-112003679D01*
X185940308Y-111999000D01*
X187038215Y-111999000D01*
X187176165Y-112017284D01*
X187176165Y-112017284D01*
G37*
G36*
X192676165Y-112017284D02*
G01*
X192852251Y-112039529D01*
X192857415Y-112041307D01*
X192866286Y-112042483D01*
X192967020Y-112079048D01*
X193062717Y-112111999D01*
X193073021Y-112117524D01*
X193089777Y-112123606D01*
X193177620Y-112173609D01*
X193261403Y-112218533D01*
X193275576Y-112229369D01*
X193296404Y-112241225D01*
X193369845Y-112301443D01*
X193440503Y-112355465D01*
X193456982Y-112372891D01*
X193480259Y-112391977D01*
X193538498Y-112459091D01*
X193595406Y-112519270D01*
X193612339Y-112544186D01*
X193636086Y-112571552D01*
X193679014Y-112642296D01*
X193722126Y-112705732D01*
X193737448Y-112738591D01*
X193759429Y-112774814D01*
X193787589Y-112846119D01*
X193817407Y-112910065D01*
X193828945Y-112950840D01*
X193846761Y-112995952D01*
X193861245Y-113064981D01*
X193878791Y-113126988D01*
X193884368Y-113175187D01*
X193895584Y-113228644D01*
X193898001Y-113293015D01*
X193904704Y-113350951D01*
X193902225Y-113405538D01*
X193904504Y-113466235D01*
X193896845Y-113524024D01*
X193894477Y-113576164D01*
X193882050Y-113635647D01*
X193873265Y-113701932D01*
X193857794Y-113751757D01*
X193848375Y-113796842D01*
X193824404Y-113859288D01*
X193802759Y-113928996D01*
X193781888Y-113970047D01*
X193767579Y-114007322D01*
X193730856Y-114070418D01*
X193695004Y-114140934D01*
X193671173Y-114172964D01*
X193654173Y-114202173D01*
X193603947Y-114263319D01*
X193553080Y-114331687D01*
X193528632Y-114355009D01*
X193511073Y-114376386D01*
X193447120Y-114432769D01*
X193381046Y-114495800D01*
X193358110Y-114511242D01*
X193341964Y-114525476D01*
X193264632Y-114574174D01*
X193183819Y-114628581D01*
X193164207Y-114637416D01*
X193151191Y-114645612D01*
X193061403Y-114683725D01*
X192967040Y-114726232D01*
X192952172Y-114730091D01*
X192943665Y-114733702D01*
X192842921Y-114758447D01*
X192736907Y-114785963D01*
X192727724Y-114786742D01*
X192724720Y-114787480D01*
X192614835Y-114796321D01*
X192559692Y-114801000D01*
X191461785Y-114801000D01*
X191323835Y-114782716D01*
X191147749Y-114760471D01*
X191142585Y-114758693D01*
X191133714Y-114757517D01*
X191032980Y-114720952D01*
X190937283Y-114688001D01*
X190926979Y-114682476D01*
X190910223Y-114676394D01*
X190822380Y-114626391D01*
X190738597Y-114581467D01*
X190724424Y-114570631D01*
X190703596Y-114558775D01*
X190630155Y-114498557D01*
X190559497Y-114444535D01*
X190543018Y-114427109D01*
X190519741Y-114408023D01*
X190461502Y-114340909D01*
X190404594Y-114280730D01*
X190387661Y-114255814D01*
X190363914Y-114228448D01*
X190320986Y-114157704D01*
X190277874Y-114094268D01*
X190262552Y-114061409D01*
X190240571Y-114025186D01*
X190212411Y-113953881D01*
X190182593Y-113889935D01*
X190171055Y-113849160D01*
X190153239Y-113804048D01*
X190138755Y-113735019D01*
X190121209Y-113673012D01*
X190115632Y-113624813D01*
X190104416Y-113571356D01*
X190101999Y-113506985D01*
X190095296Y-113449049D01*
X190097775Y-113394462D01*
X190095496Y-113333765D01*
X190103155Y-113275976D01*
X190105523Y-113223836D01*
X190117950Y-113164353D01*
X190126735Y-113098068D01*
X190142206Y-113048243D01*
X190151625Y-113003158D01*
X190175596Y-112940712D01*
X190197241Y-112871004D01*
X190218112Y-112829953D01*
X190232421Y-112792678D01*
X190269144Y-112729582D01*
X190304996Y-112659066D01*
X190328827Y-112627036D01*
X190345827Y-112597827D01*
X190396053Y-112536681D01*
X190446920Y-112468313D01*
X190471368Y-112444991D01*
X190488927Y-112423614D01*
X190552880Y-112367231D01*
X190618954Y-112304200D01*
X190641890Y-112288758D01*
X190658036Y-112274524D01*
X190735368Y-112225826D01*
X190816181Y-112171419D01*
X190835793Y-112162584D01*
X190848809Y-112154388D01*
X190938597Y-112116275D01*
X191032960Y-112073768D01*
X191047828Y-112069909D01*
X191056335Y-112066298D01*
X191157079Y-112041553D01*
X191263093Y-112014037D01*
X191272276Y-112013258D01*
X191275280Y-112012520D01*
X191385165Y-112003679D01*
X191440308Y-111999000D01*
X192538215Y-111999000D01*
X192676165Y-112017284D01*
X192676165Y-112017284D01*
G37*
G36*
X197119899Y-111851959D02*
G01*
X197136769Y-111863231D01*
X197148041Y-111880101D01*
X197154448Y-111912312D01*
X197154448Y-113587688D01*
X197151999Y-113600000D01*
X197148041Y-113619899D01*
X197136769Y-113636769D01*
X197119899Y-113648041D01*
X197100000Y-113651999D01*
X197087688Y-113654448D01*
X195412312Y-113654448D01*
X195380101Y-113648041D01*
X195363231Y-113636769D01*
X195351959Y-113619899D01*
X195345552Y-113587688D01*
X195345552Y-111912312D01*
X195351959Y-111880101D01*
X195363231Y-111863231D01*
X195380101Y-111851959D01*
X195412312Y-111845552D01*
X197087688Y-111845552D01*
X197119899Y-111851959D01*
X197119899Y-111851959D01*
G37*
M02*
