%TF.GenerationSoftware,KiCad,Pcbnew,5.99.0-unknown-9aa2d7e101~106~ubuntu20.04.1*%
%TF.CreationDate,2021-01-04T20:50:53-08:00*%
%TF.ProjectId,JST2DUPONT,4a535432-4455-4504-9f4e-542e6b696361,rev?*%
%TF.SameCoordinates,PX940ed50PY5a995c0*%
%TF.FileFunction,Copper,L1,Top*%
%TF.FilePolarity,Positive*%
%FSLAX46Y46*%
G04 Gerber Fmt 4.6, Leading zero omitted, Abs format (unit mm)*
G04 Created by KiCad (PCBNEW 5.99.0-unknown-9aa2d7e101~106~ubuntu20.04.1) date 2021-01-04 20:50:53*
%MOMM*%
%LPD*%
G01*
G04 APERTURE LIST*
G04 Aperture macros list*
%AMRoundRect*
0 Rectangle with rounded corners*
0 $1 Rounding radius*
0 $2 $3 $4 $5 $6 $7 $8 $9 X,Y pos of 4 corners*
0 Add a 4 corners polygon primitive as box body*
4,1,4,$2,$3,$4,$5,$6,$7,$8,$9,$2,$3,0*
0 Add four circle primitives for the rounded corners*
1,1,$1+$1,$2,$3,0*
1,1,$1+$1,$4,$5,0*
1,1,$1+$1,$6,$7,0*
1,1,$1+$1,$8,$9,0*
0 Add four rect primitives between the rounded corners*
20,1,$1+$1,$2,$3,$4,$5,0*
20,1,$1+$1,$4,$5,$6,$7,0*
20,1,$1+$1,$6,$7,$8,$9,0*
20,1,$1+$1,$8,$9,$2,$3,0*%
G04 Aperture macros list end*
%TA.AperFunction,ComponentPad*%
%ADD10O,1.700000X1.700000*%
%TD*%
%TA.AperFunction,ComponentPad*%
%ADD11R,1.700000X1.700000*%
%TD*%
%TA.AperFunction,ComponentPad*%
%ADD12O,1.950000X1.700000*%
%TD*%
%TA.AperFunction,ComponentPad*%
%ADD13RoundRect,0.250000X-0.725000X0.600000X-0.725000X-0.600000X0.725000X-0.600000X0.725000X0.600000X0*%
%TD*%
%TA.AperFunction,Conductor*%
%ADD14C,1.000000*%
%TD*%
G04 APERTURE END LIST*
D10*
%TO.P,J2,4,Pin_4*%
%TO.N,Net-(J1-Pad4)*%
X2850000Y3330000D03*
%TO.P,J2,3,Pin_3*%
%TO.N,Net-(J1-Pad3)*%
X2850000Y5870000D03*
%TO.P,J2,2,Pin_2*%
%TO.N,Net-(J1-Pad2)*%
X2850000Y8410000D03*
D11*
%TO.P,J2,1,Pin_1*%
%TO.N,Net-(J1-Pad1)*%
X2850000Y10950000D03*
%TD*%
D12*
%TO.P,J1,4,Pin_4*%
%TO.N,Net-(J1-Pad4)*%
X8500000Y3250000D03*
%TO.P,J1,3,Pin_3*%
%TO.N,Net-(J1-Pad3)*%
X8500000Y5750000D03*
%TO.P,J1,2,Pin_2*%
%TO.N,Net-(J1-Pad2)*%
X8500000Y8250000D03*
D13*
%TO.P,J1,1,Pin_1*%
%TO.N,Net-(J1-Pad1)*%
X8500000Y10750000D03*
%TD*%
D14*
%TO.N,Net-(J1-Pad4)*%
X8420000Y3330000D02*
X8500000Y3250000D01*
%TD*%
%TA.AperFunction,Conductor*%
%TO.N,Net-(J1-Pad1)*%
G36*
X9692121Y12079998D02*
G01*
X9738614Y12026342D01*
X9750000Y11974000D01*
X9750000Y9726000D01*
X9729998Y9657879D01*
X9676342Y9611386D01*
X9624000Y9600000D01*
X6276000Y9600000D01*
X6207879Y9620002D01*
X6161386Y9673658D01*
X6150000Y9726000D01*
X6150000Y9900000D01*
X1876000Y9900000D01*
X1807879Y9920002D01*
X1761386Y9973658D01*
X1750000Y10026000D01*
X1750000Y11974000D01*
X1770002Y12042121D01*
X1823658Y12088614D01*
X1876000Y12100000D01*
X9624000Y12100000D01*
X9692121Y12079998D01*
G37*
%TD.AperFunction*%
%TD*%
%TA.AperFunction,Conductor*%
%TO.N,Net-(J1-Pad2)*%
G36*
X5692121Y9579998D02*
G01*
X5738614Y9526342D01*
X5750000Y9474000D01*
X5750000Y9300000D01*
X9624000Y9300000D01*
X9692121Y9279998D01*
X9738614Y9226342D01*
X9750000Y9174000D01*
X9750000Y7226000D01*
X9729998Y7157879D01*
X9676342Y7111386D01*
X9624000Y7100000D01*
X6376000Y7100000D01*
X6307879Y7120002D01*
X6261386Y7173658D01*
X6250000Y7226000D01*
X6250000Y7300000D01*
X1876000Y7300000D01*
X1807879Y7320002D01*
X1761386Y7373658D01*
X1750000Y7426000D01*
X1750000Y9474000D01*
X1770002Y9542121D01*
X1823658Y9588614D01*
X1876000Y9600000D01*
X5624000Y9600000D01*
X5692121Y9579998D01*
G37*
%TD.AperFunction*%
%TD*%
%TA.AperFunction,Conductor*%
%TO.N,Net-(J1-Pad3)*%
G36*
X5692121Y6979998D02*
G01*
X5738614Y6926342D01*
X5750000Y6874000D01*
X5750000Y6800000D01*
X9624000Y6800000D01*
X9692121Y6779998D01*
X9738614Y6726342D01*
X9750000Y6674000D01*
X9750000Y4726000D01*
X9729998Y4657879D01*
X9676342Y4611386D01*
X9624000Y4600000D01*
X6376000Y4600000D01*
X6307879Y4620002D01*
X6261386Y4673658D01*
X6250000Y4726000D01*
X6250000Y4800000D01*
X1876000Y4800000D01*
X1807879Y4820002D01*
X1761386Y4873658D01*
X1750000Y4926000D01*
X1750000Y6874000D01*
X1770002Y6942121D01*
X1823658Y6988614D01*
X1876000Y7000000D01*
X5624000Y7000000D01*
X5692121Y6979998D01*
G37*
%TD.AperFunction*%
%TD*%
%TA.AperFunction,Conductor*%
%TO.N,Net-(J1-Pad4)*%
G36*
X5492121Y4479998D02*
G01*
X5538614Y4426342D01*
X5550000Y4374000D01*
X5550000Y4300000D01*
X9524000Y4300000D01*
X9592121Y4279998D01*
X9638614Y4226342D01*
X9650000Y4174000D01*
X9650000Y2126000D01*
X9629998Y2057879D01*
X9576342Y2011386D01*
X9524000Y2000000D01*
X1776000Y2000000D01*
X1707879Y2020002D01*
X1661386Y2073658D01*
X1650000Y2126000D01*
X1650000Y4374000D01*
X1670002Y4442121D01*
X1723658Y4488614D01*
X1776000Y4500000D01*
X5424000Y4500000D01*
X5492121Y4479998D01*
G37*
%TD.AperFunction*%
%TD*%
M02*
