%TF.GenerationSoftware,KiCad,Pcbnew,5.99.0-unknown-9aa2d7e101~106~ubuntu20.04.1*%
%TF.CreationDate,2020-12-24T02:29:15-08:00*%
%TF.ProjectId,MotorJST,4d6f746f-724a-4535-942e-6b696361645f,rev?*%
%TF.SameCoordinates,PXb97d5a0PY81390e0*%
%TF.FileFunction,Legend,Top*%
%TF.FilePolarity,Positive*%
%FSLAX46Y46*%
G04 Gerber Fmt 4.6, Leading zero omitted, Abs format (unit mm)*
G04 Created by KiCad (PCBNEW 5.99.0-unknown-9aa2d7e101~106~ubuntu20.04.1) date 2020-12-24 02:29:15*
%MOMM*%
%LPD*%
G01*
G04 APERTURE LIST*
%ADD10C,0.100000*%
%ADD11C,0.150000*%
%ADD12C,0.120000*%
G04 APERTURE END LIST*
D10*
X696428Y410715D02*
X696428Y1160715D01*
X946428Y625000D01*
X1196428Y1160715D01*
X1196428Y410715D01*
X1660714Y410715D02*
X1589285Y446429D01*
X1553571Y482143D01*
X1517857Y553572D01*
X1517857Y767858D01*
X1553571Y839286D01*
X1589285Y875000D01*
X1660714Y910715D01*
X1767857Y910715D01*
X1839285Y875000D01*
X1875000Y839286D01*
X1910714Y767858D01*
X1910714Y553572D01*
X1875000Y482143D01*
X1839285Y446429D01*
X1767857Y410715D01*
X1660714Y410715D01*
X2125000Y910715D02*
X2410714Y910715D01*
X2232142Y1160715D02*
X2232142Y517858D01*
X2267857Y446429D01*
X2339285Y410715D01*
X2410714Y410715D01*
X2767857Y410715D02*
X2696428Y446429D01*
X2660714Y482143D01*
X2625000Y553572D01*
X2625000Y767858D01*
X2660714Y839286D01*
X2696428Y875000D01*
X2767857Y910715D01*
X2875000Y910715D01*
X2946428Y875000D01*
X2982142Y839286D01*
X3017857Y767858D01*
X3017857Y553572D01*
X2982142Y482143D01*
X2946428Y446429D01*
X2875000Y410715D01*
X2767857Y410715D01*
X3339285Y410715D02*
X3339285Y910715D01*
X3339285Y767858D02*
X3375000Y839286D01*
X3410714Y875000D01*
X3482142Y910715D01*
X3553571Y910715D01*
X4017857Y1160715D02*
X4017857Y625000D01*
X3982142Y517858D01*
X3910714Y446429D01*
X3803571Y410715D01*
X3732142Y410715D01*
X4339285Y446429D02*
X4446428Y410715D01*
X4625000Y410715D01*
X4696428Y446429D01*
X4732142Y482143D01*
X4767857Y553572D01*
X4767857Y625000D01*
X4732142Y696429D01*
X4696428Y732143D01*
X4625000Y767858D01*
X4482142Y803572D01*
X4410714Y839286D01*
X4375000Y875000D01*
X4339285Y946429D01*
X4339285Y1017858D01*
X4375000Y1089286D01*
X4410714Y1125000D01*
X4482142Y1160715D01*
X4660714Y1160715D01*
X4767857Y1125000D01*
X4982142Y1160715D02*
X5410714Y1160715D01*
X5196428Y410715D02*
X5196428Y1160715D01*
X839285Y18410715D02*
X839285Y18910715D01*
X839285Y18767858D02*
X875000Y18839286D01*
X910714Y18875000D01*
X982142Y18910715D01*
X1053571Y18910715D01*
X1696428Y18410715D02*
X1267857Y18410715D01*
X1482142Y18410715D02*
X1482142Y19160715D01*
X1410714Y19053572D01*
X1339285Y18982143D01*
X1267857Y18946429D01*
D11*
X5095238Y3952381D02*
X5142857Y4000000D01*
X5238095Y4047620D01*
X5476190Y4047620D01*
X5571428Y4000000D01*
X5619047Y3952381D01*
X5666666Y3857143D01*
X5666666Y3761905D01*
X5619047Y3619048D01*
X5047619Y3047620D01*
X5666666Y3047620D01*
X6095238Y3428572D02*
X6857142Y3428572D01*
X5666666Y8047620D02*
X5095238Y8047620D01*
X5380952Y8047620D02*
X5380952Y9047620D01*
X5285714Y8904762D01*
X5190476Y8809524D01*
X5095238Y8761905D01*
X6095238Y8428572D02*
X6857142Y8428572D01*
X6476190Y8047620D02*
X6476190Y8809524D01*
X5095238Y11452381D02*
X5142857Y11500000D01*
X5238095Y11547620D01*
X5476190Y11547620D01*
X5571428Y11500000D01*
X5619047Y11452381D01*
X5666666Y11357143D01*
X5666666Y11261905D01*
X5619047Y11119048D01*
X5047619Y10547620D01*
X5666666Y10547620D01*
X6095238Y10928572D02*
X6857142Y10928572D01*
X6476190Y10547620D02*
X6476190Y11309524D01*
X5666666Y15547620D02*
X5095238Y15547620D01*
X5380952Y15547620D02*
X5380952Y16547620D01*
X5285714Y16404762D01*
X5190476Y16309524D01*
X5095238Y16261905D01*
X6095238Y15928572D02*
X6857142Y15928572D01*
D12*
%TO.C,J2*%
X1170000Y17330000D02*
X2500000Y17330000D01*
X1170000Y16000000D02*
X1170000Y17330000D01*
X1170000Y14730000D02*
X3830000Y14730000D01*
X3830000Y14730000D02*
X3830000Y1970000D01*
X1170000Y14730000D02*
X1170000Y1970000D01*
X1170000Y1970000D02*
X3830000Y1970000D01*
%TO.C,J1*%
X7900000Y15700000D02*
X8500000Y16000000D01*
X7900000Y16300000D02*
X7900000Y15700000D01*
X8500000Y16000000D02*
X7900000Y16300000D01*
X11590000Y3180000D02*
X11590000Y3500000D01*
X15010000Y3180000D02*
X11590000Y3180000D01*
X15090000Y3500000D02*
X15010000Y3180000D01*
X15010000Y3820000D02*
X15090000Y3500000D01*
X11590000Y3820000D02*
X15010000Y3820000D01*
X11590000Y3500000D02*
X11590000Y3820000D01*
X10590000Y4830000D02*
X10590000Y4670000D01*
X11590000Y5680000D02*
X11590000Y6000000D01*
X15010000Y5680000D02*
X11590000Y5680000D01*
X15090000Y6000000D02*
X15010000Y5680000D01*
X15010000Y6320000D02*
X15090000Y6000000D01*
X11590000Y6320000D02*
X15010000Y6320000D01*
X11590000Y6000000D02*
X11590000Y6320000D01*
X10590000Y7330000D02*
X10590000Y7170000D01*
X11590000Y8180000D02*
X11590000Y8500000D01*
X15010000Y8180000D02*
X11590000Y8180000D01*
X15090000Y8500000D02*
X15010000Y8180000D01*
X15010000Y8820000D02*
X15090000Y8500000D01*
X11590000Y8820000D02*
X15010000Y8820000D01*
X11590000Y8500000D02*
X11590000Y8820000D01*
X10590000Y9830000D02*
X10590000Y9670000D01*
X11590000Y10680000D02*
X11590000Y11000000D01*
X15010000Y10680000D02*
X11590000Y10680000D01*
X15090000Y11000000D02*
X15010000Y10680000D01*
X15010000Y11320000D02*
X15090000Y11000000D01*
X11590000Y11320000D02*
X15010000Y11320000D01*
X11590000Y11000000D02*
X11590000Y11320000D01*
X10590000Y12330000D02*
X10590000Y12170000D01*
X11590000Y13180000D02*
X11590000Y13500000D01*
X15010000Y13180000D02*
X11590000Y13180000D01*
X15090000Y13500000D02*
X15010000Y13180000D01*
X15010000Y13820000D02*
X15090000Y13500000D01*
X11590000Y13820000D02*
X15010000Y13820000D01*
X11590000Y13500000D02*
X11590000Y13820000D01*
X10590000Y14830000D02*
X10590000Y14670000D01*
X11590000Y15680000D02*
X11590000Y16000000D01*
X15010000Y15680000D02*
X11590000Y15680000D01*
X15090000Y16000000D02*
X15010000Y15680000D01*
X15010000Y16320000D02*
X15090000Y16000000D01*
X11590000Y16320000D02*
X15010000Y16320000D01*
X11590000Y16000000D02*
X11590000Y16320000D01*
X11590000Y17390000D02*
X11590000Y2110000D01*
X10590000Y2110000D02*
X10590000Y890000D01*
X15590000Y2110000D02*
X10590000Y2110000D01*
X15590000Y890000D02*
X15590000Y2110000D01*
X10590000Y17390000D02*
X10590000Y18610000D01*
X15590000Y17390000D02*
X10590000Y17390000D01*
X15590000Y18610000D02*
X15590000Y17390000D01*
X8390000Y2110000D02*
X10590000Y2110000D01*
X8390000Y890000D02*
X8390000Y2110000D01*
X16810000Y890000D02*
X8390000Y890000D01*
X16810000Y18610000D02*
X16810000Y890000D01*
X8390000Y18610000D02*
X16810000Y18610000D01*
X8390000Y17390000D02*
X8390000Y18610000D01*
X10590000Y17390000D02*
X8390000Y17390000D01*
%TD*%
M02*
