%TF.GenerationSoftware,KiCad,Pcbnew,5.99.0-unknown-9aa2d7e101~106~ubuntu20.04.1*%
%TF.CreationDate,2020-12-24T02:29:15-08:00*%
%TF.ProjectId,MotorJST,4d6f746f-724a-4535-942e-6b696361645f,rev?*%
%TF.SameCoordinates,PXb97d5a0PY81390e0*%
%TF.FileFunction,Legend,Bot*%
%TF.FilePolarity,Positive*%
%FSLAX46Y46*%
G04 Gerber Fmt 4.6, Leading zero omitted, Abs format (unit mm)*
G04 Created by KiCad (PCBNEW 5.99.0-unknown-9aa2d7e101~106~ubuntu20.04.1) date 2020-12-24 02:29:15*
%MOMM*%
%LPD*%
G01*
G04 APERTURE LIST*
%ADD10C,0.100000*%
%ADD11C,0.150000*%
G04 APERTURE END LIST*
D10*
X1375000Y15482143D02*
X1339285Y15517858D01*
X1232142Y15589286D01*
X1160714Y15625000D01*
X1053571Y15660715D01*
X875000Y15696429D01*
X732142Y15696429D01*
X553571Y15660715D01*
X446428Y15625000D01*
X375000Y15589286D01*
X267857Y15517858D01*
X232142Y15482143D01*
X1053571Y14875000D02*
X1089285Y14946429D01*
X1089285Y15089286D01*
X1053571Y15160715D01*
X1017857Y15196429D01*
X946428Y15232143D01*
X732142Y15232143D01*
X660714Y15196429D01*
X625000Y15160715D01*
X589285Y15089286D01*
X589285Y14946429D01*
X625000Y14875000D01*
X1375000Y14625000D02*
X1339285Y14589286D01*
X1232142Y14517858D01*
X1160714Y14482143D01*
X1053571Y14446429D01*
X875000Y14410715D01*
X732142Y14410715D01*
X553571Y14446429D01*
X446428Y14482143D01*
X375000Y14517858D01*
X267857Y14589286D01*
X232142Y14625000D01*
X1089285Y13482143D02*
X589285Y13482143D01*
X339285Y13482143D02*
X375000Y13517858D01*
X410714Y13482143D01*
X375000Y13446429D01*
X339285Y13482143D01*
X410714Y13482143D01*
X1160714Y12625000D02*
X1125000Y12696429D01*
X1053571Y12767858D01*
X946428Y12875000D01*
X910714Y12946429D01*
X910714Y13017858D01*
X1089285Y12982143D02*
X1053571Y13053572D01*
X982142Y13125000D01*
X839285Y13160715D01*
X589285Y13160715D01*
X446428Y13125000D01*
X375000Y13053572D01*
X339285Y12982143D01*
X339285Y12839286D01*
X375000Y12767858D01*
X446428Y12696429D01*
X589285Y12660715D01*
X839285Y12660715D01*
X982142Y12696429D01*
X1053571Y12767858D01*
X1089285Y12839286D01*
X1089285Y12982143D01*
X589285Y12017858D02*
X1089285Y12017858D01*
X589285Y12339286D02*
X982142Y12339286D01*
X1053571Y12303572D01*
X1089285Y12232143D01*
X1089285Y12125000D01*
X1053571Y12053572D01*
X1017857Y12017858D01*
X1089285Y11660715D02*
X589285Y11660715D01*
X732142Y11660715D02*
X660714Y11625000D01*
X625000Y11589286D01*
X589285Y11517858D01*
X589285Y11446429D01*
X589285Y11267858D02*
X1089285Y11089286D01*
X589285Y10910715D02*
X1089285Y11089286D01*
X1267857Y11160715D01*
X1303571Y11196429D01*
X1339285Y11267858D01*
X1017857Y10625000D02*
X1053571Y10589286D01*
X1089285Y10625000D01*
X1053571Y10660715D01*
X1017857Y10625000D01*
X1089285Y10625000D01*
X589285Y9946429D02*
X1089285Y9946429D01*
X589285Y10267858D02*
X982142Y10267858D01*
X1053571Y10232143D01*
X1089285Y10160715D01*
X1089285Y10053572D01*
X1053571Y9982143D01*
X1017857Y9946429D01*
X1053571Y9625000D02*
X1089285Y9553572D01*
X1089285Y9410715D01*
X1053571Y9339286D01*
X982142Y9303572D01*
X946428Y9303572D01*
X875000Y9339286D01*
X839285Y9410715D01*
X839285Y9517858D01*
X803571Y9589286D01*
X732142Y9625000D01*
X696428Y9625000D01*
X625000Y9589286D01*
X589285Y9517858D01*
X589285Y9410715D01*
X625000Y9339286D01*
X1089285Y8410715D02*
X339285Y8410715D01*
X339285Y8232143D01*
X375000Y8125000D01*
X446428Y8053572D01*
X517857Y8017858D01*
X660714Y7982143D01*
X767857Y7982143D01*
X910714Y8017858D01*
X982142Y8053572D01*
X1053571Y8125000D01*
X1089285Y8232143D01*
X1089285Y8410715D01*
X1053571Y7375000D02*
X1089285Y7446429D01*
X1089285Y7589286D01*
X1053571Y7660715D01*
X982142Y7696429D01*
X696428Y7696429D01*
X625000Y7660715D01*
X589285Y7589286D01*
X589285Y7446429D01*
X625000Y7375000D01*
X696428Y7339286D01*
X767857Y7339286D01*
X839285Y7696429D01*
X1053571Y6696429D02*
X1089285Y6767858D01*
X1089285Y6910715D01*
X1053571Y6982143D01*
X1017857Y7017858D01*
X946428Y7053572D01*
X732142Y7053572D01*
X660714Y7017858D01*
X625000Y6982143D01*
X589285Y6910715D01*
X589285Y6767858D01*
X625000Y6696429D01*
X410714Y5839286D02*
X375000Y5803572D01*
X339285Y5732143D01*
X339285Y5553572D01*
X375000Y5482143D01*
X410714Y5446429D01*
X482142Y5410715D01*
X553571Y5410715D01*
X660714Y5446429D01*
X1089285Y5875000D01*
X1089285Y5410715D01*
X339285Y4946429D02*
X339285Y4875000D01*
X375000Y4803572D01*
X410714Y4767858D01*
X482142Y4732143D01*
X625000Y4696429D01*
X803571Y4696429D01*
X946428Y4732143D01*
X1017857Y4767858D01*
X1053571Y4803572D01*
X1089285Y4875000D01*
X1089285Y4946429D01*
X1053571Y5017858D01*
X1017857Y5053572D01*
X946428Y5089286D01*
X803571Y5125000D01*
X625000Y5125000D01*
X482142Y5089286D01*
X410714Y5053572D01*
X375000Y5017858D01*
X339285Y4946429D01*
X410714Y4410715D02*
X375000Y4375000D01*
X339285Y4303572D01*
X339285Y4125000D01*
X375000Y4053572D01*
X410714Y4017858D01*
X482142Y3982143D01*
X553571Y3982143D01*
X660714Y4017858D01*
X1089285Y4446429D01*
X1089285Y3982143D01*
X339285Y3517858D02*
X339285Y3446429D01*
X375000Y3375000D01*
X410714Y3339286D01*
X482142Y3303572D01*
X625000Y3267858D01*
X803571Y3267858D01*
X946428Y3303572D01*
X1017857Y3339286D01*
X1053571Y3375000D01*
X1089285Y3446429D01*
X1089285Y3517858D01*
X1053571Y3589286D01*
X1017857Y3625000D01*
X946428Y3660715D01*
X803571Y3696429D01*
X625000Y3696429D01*
X482142Y3660715D01*
X410714Y3625000D01*
X375000Y3589286D01*
X339285Y3517858D01*
D11*
X15928571Y11023810D02*
X15928571Y10547620D01*
X16261904Y11547620D02*
X15928571Y11023810D01*
X15595238Y11547620D01*
X14880952Y10595239D02*
X14976190Y10547620D01*
X15166666Y10547620D01*
X15261904Y10595239D01*
X15309523Y10690477D01*
X15309523Y11071429D01*
X15261904Y11166667D01*
X15166666Y11214286D01*
X14976190Y11214286D01*
X14880952Y11166667D01*
X14833333Y11071429D01*
X14833333Y10976191D01*
X15309523Y10880953D01*
X14261904Y10547620D02*
X14357142Y10595239D01*
X14404761Y10690477D01*
X14404761Y11547620D01*
X13738095Y10547620D02*
X13833333Y10595239D01*
X13880952Y10690477D01*
X13880952Y11547620D01*
X13214285Y10547620D02*
X13309523Y10595239D01*
X13357142Y10642858D01*
X13404761Y10738096D01*
X13404761Y11023810D01*
X13357142Y11119048D01*
X13309523Y11166667D01*
X13214285Y11214286D01*
X13071428Y11214286D01*
X12976190Y11166667D01*
X12928571Y11119048D01*
X12880952Y11023810D01*
X12880952Y10738096D01*
X12928571Y10642858D01*
X12976190Y10595239D01*
X13071428Y10547620D01*
X13214285Y10547620D01*
X12547619Y11214286D02*
X12357142Y10547620D01*
X12166666Y11023810D01*
X11976190Y10547620D01*
X11785714Y11214286D01*
X15357142Y16500000D02*
X15452380Y16547620D01*
X15595238Y16547620D01*
X15738095Y16500000D01*
X15833333Y16404762D01*
X15880952Y16309524D01*
X15928571Y16119048D01*
X15928571Y15976191D01*
X15880952Y15785715D01*
X15833333Y15690477D01*
X15738095Y15595239D01*
X15595238Y15547620D01*
X15500000Y15547620D01*
X15357142Y15595239D01*
X15309523Y15642858D01*
X15309523Y15976191D01*
X15500000Y15976191D01*
X14880952Y15547620D02*
X14880952Y16214286D01*
X14880952Y16023810D02*
X14833333Y16119048D01*
X14785714Y16166667D01*
X14690476Y16214286D01*
X14595238Y16214286D01*
X13880952Y15595239D02*
X13976190Y15547620D01*
X14166666Y15547620D01*
X14261904Y15595239D01*
X14309523Y15690477D01*
X14309523Y16071429D01*
X14261904Y16166667D01*
X14166666Y16214286D01*
X13976190Y16214286D01*
X13880952Y16166667D01*
X13833333Y16071429D01*
X13833333Y15976191D01*
X14309523Y15880953D01*
X13023809Y15595239D02*
X13119047Y15547620D01*
X13309523Y15547620D01*
X13404761Y15595239D01*
X13452380Y15690477D01*
X13452380Y16071429D01*
X13404761Y16166667D01*
X13309523Y16214286D01*
X13119047Y16214286D01*
X13023809Y16166667D01*
X12976190Y16071429D01*
X12976190Y15976191D01*
X13452380Y15880953D01*
X12547619Y16214286D02*
X12547619Y15547620D01*
X12547619Y16119048D02*
X12500000Y16166667D01*
X12404761Y16214286D01*
X12261904Y16214286D01*
X12166666Y16166667D01*
X12119047Y16071429D01*
X12119047Y15547620D01*
X15071428Y3571429D02*
X14928571Y3523810D01*
X14880952Y3476191D01*
X14833333Y3380953D01*
X14833333Y3238096D01*
X14880952Y3142858D01*
X14928571Y3095239D01*
X15023809Y3047620D01*
X15404761Y3047620D01*
X15404761Y4047620D01*
X15071428Y4047620D01*
X14976190Y4000000D01*
X14928571Y3952381D01*
X14880952Y3857143D01*
X14880952Y3761905D01*
X14928571Y3666667D01*
X14976190Y3619048D01*
X15071428Y3571429D01*
X15404761Y3571429D01*
X14261904Y3047620D02*
X14357142Y3095239D01*
X14404761Y3190477D01*
X14404761Y4047620D01*
X13452380Y3714286D02*
X13452380Y3047620D01*
X13880952Y3714286D02*
X13880952Y3190477D01*
X13833333Y3095239D01*
X13738095Y3047620D01*
X13595238Y3047620D01*
X13500000Y3095239D01*
X13452380Y3142858D01*
X12595238Y3095239D02*
X12690476Y3047620D01*
X12880952Y3047620D01*
X12976190Y3095239D01*
X13023809Y3190477D01*
X13023809Y3571429D01*
X12976190Y3666667D01*
X12880952Y3714286D01*
X12690476Y3714286D01*
X12595238Y3666667D01*
X12547619Y3571429D01*
X12547619Y3476191D01*
X13023809Y3380953D01*
X14571428Y8047620D02*
X14904761Y8523810D01*
X15142857Y8047620D02*
X15142857Y9047620D01*
X14761904Y9047620D01*
X14666666Y9000000D01*
X14619047Y8952381D01*
X14571428Y8857143D01*
X14571428Y8714286D01*
X14619047Y8619048D01*
X14666666Y8571429D01*
X14761904Y8523810D01*
X15142857Y8523810D01*
X13761904Y8095239D02*
X13857142Y8047620D01*
X14047619Y8047620D01*
X14142857Y8095239D01*
X14190476Y8190477D01*
X14190476Y8571429D01*
X14142857Y8666667D01*
X14047619Y8714286D01*
X13857142Y8714286D01*
X13761904Y8666667D01*
X13714285Y8571429D01*
X13714285Y8476191D01*
X14190476Y8380953D01*
X12857142Y8047620D02*
X12857142Y9047620D01*
X12857142Y8095239D02*
X12952380Y8047620D01*
X13142857Y8047620D01*
X13238095Y8095239D01*
X13285714Y8142858D01*
X13333333Y8238096D01*
X13333333Y8523810D01*
X13285714Y8619048D01*
X13238095Y8666667D01*
X13142857Y8714286D01*
X12952380Y8714286D01*
X12857142Y8666667D01*
X6571428Y10547620D02*
X6904761Y11023810D01*
X7142857Y10547620D02*
X7142857Y11547620D01*
X6761904Y11547620D01*
X6666666Y11500000D01*
X6619047Y11452381D01*
X6571428Y11357143D01*
X6571428Y11214286D01*
X6619047Y11119048D01*
X6666666Y11071429D01*
X6761904Y11023810D01*
X7142857Y11023810D01*
X5761904Y10595239D02*
X5857142Y10547620D01*
X6047619Y10547620D01*
X6142857Y10595239D01*
X6190476Y10690477D01*
X6190476Y11071429D01*
X6142857Y11166667D01*
X6047619Y11214286D01*
X5857142Y11214286D01*
X5761904Y11166667D01*
X5714285Y11071429D01*
X5714285Y10976191D01*
X6190476Y10880953D01*
X4857142Y10547620D02*
X4857142Y11547620D01*
X4857142Y10595239D02*
X4952380Y10547620D01*
X5142857Y10547620D01*
X5238095Y10595239D01*
X5285714Y10642858D01*
X5333333Y10738096D01*
X5333333Y11023810D01*
X5285714Y11119048D01*
X5238095Y11166667D01*
X5142857Y11214286D01*
X4952380Y11214286D01*
X4857142Y11166667D01*
X7357142Y16500000D02*
X7452380Y16547620D01*
X7595238Y16547620D01*
X7738095Y16500000D01*
X7833333Y16404762D01*
X7880952Y16309524D01*
X7928571Y16119048D01*
X7928571Y15976191D01*
X7880952Y15785715D01*
X7833333Y15690477D01*
X7738095Y15595239D01*
X7595238Y15547620D01*
X7500000Y15547620D01*
X7357142Y15595239D01*
X7309523Y15642858D01*
X7309523Y15976191D01*
X7500000Y15976191D01*
X6880952Y15547620D02*
X6880952Y16214286D01*
X6880952Y16023810D02*
X6833333Y16119048D01*
X6785714Y16166667D01*
X6690476Y16214286D01*
X6595238Y16214286D01*
X5880952Y15595239D02*
X5976190Y15547620D01*
X6166666Y15547620D01*
X6261904Y15595239D01*
X6309523Y15690477D01*
X6309523Y16071429D01*
X6261904Y16166667D01*
X6166666Y16214286D01*
X5976190Y16214286D01*
X5880952Y16166667D01*
X5833333Y16071429D01*
X5833333Y15976191D01*
X6309523Y15880953D01*
X5023809Y15595239D02*
X5119047Y15547620D01*
X5309523Y15547620D01*
X5404761Y15595239D01*
X5452380Y15690477D01*
X5452380Y16071429D01*
X5404761Y16166667D01*
X5309523Y16214286D01*
X5119047Y16214286D01*
X5023809Y16166667D01*
X4976190Y16071429D01*
X4976190Y15976191D01*
X5452380Y15880953D01*
X4547619Y16214286D02*
X4547619Y15547620D01*
X4547619Y16119048D02*
X4500000Y16166667D01*
X4404761Y16214286D01*
X4261904Y16214286D01*
X4166666Y16166667D01*
X4119047Y16071429D01*
X4119047Y15547620D01*
X7071428Y3571429D02*
X6928571Y3523810D01*
X6880952Y3476191D01*
X6833333Y3380953D01*
X6833333Y3238096D01*
X6880952Y3142858D01*
X6928571Y3095239D01*
X7023809Y3047620D01*
X7404761Y3047620D01*
X7404761Y4047620D01*
X7071428Y4047620D01*
X6976190Y4000000D01*
X6928571Y3952381D01*
X6880952Y3857143D01*
X6880952Y3761905D01*
X6928571Y3666667D01*
X6976190Y3619048D01*
X7071428Y3571429D01*
X7404761Y3571429D01*
X6261904Y3047620D02*
X6357142Y3095239D01*
X6404761Y3190477D01*
X6404761Y4047620D01*
X5452380Y3714286D02*
X5452380Y3047620D01*
X5880952Y3714286D02*
X5880952Y3190477D01*
X5833333Y3095239D01*
X5738095Y3047620D01*
X5595238Y3047620D01*
X5500000Y3095239D01*
X5452380Y3142858D01*
X4595238Y3095239D02*
X4690476Y3047620D01*
X4880952Y3047620D01*
X4976190Y3095239D01*
X5023809Y3190477D01*
X5023809Y3571429D01*
X4976190Y3666667D01*
X4880952Y3714286D01*
X4690476Y3714286D01*
X4595238Y3666667D01*
X4547619Y3571429D01*
X4547619Y3476191D01*
X5023809Y3380953D01*
X7404761Y8571429D02*
X7261904Y8523810D01*
X7214285Y8476191D01*
X7166666Y8380953D01*
X7166666Y8238096D01*
X7214285Y8142858D01*
X7261904Y8095239D01*
X7357142Y8047620D01*
X7738095Y8047620D01*
X7738095Y9047620D01*
X7404761Y9047620D01*
X7309523Y9000000D01*
X7261904Y8952381D01*
X7214285Y8857143D01*
X7214285Y8761905D01*
X7261904Y8666667D01*
X7309523Y8619048D01*
X7404761Y8571429D01*
X7738095Y8571429D01*
X6595238Y8047620D02*
X6690476Y8095239D01*
X6738095Y8190477D01*
X6738095Y9047620D01*
X5785714Y8047620D02*
X5785714Y8571429D01*
X5833333Y8666667D01*
X5928571Y8714286D01*
X6119047Y8714286D01*
X6214285Y8666667D01*
X5785714Y8095239D02*
X5880952Y8047620D01*
X6119047Y8047620D01*
X6214285Y8095239D01*
X6261904Y8190477D01*
X6261904Y8285715D01*
X6214285Y8380953D01*
X6119047Y8428572D01*
X5880952Y8428572D01*
X5785714Y8476191D01*
X4880952Y8095239D02*
X4976190Y8047620D01*
X5166666Y8047620D01*
X5261904Y8095239D01*
X5309523Y8142858D01*
X5357142Y8238096D01*
X5357142Y8523810D01*
X5309523Y8619048D01*
X5261904Y8666667D01*
X5166666Y8714286D01*
X4976190Y8714286D01*
X4880952Y8666667D01*
X4452380Y8047620D02*
X4452380Y9047620D01*
X4357142Y8428572D02*
X4071428Y8047620D01*
X4071428Y8714286D02*
X4452380Y8333334D01*
M02*
